<svg id="svg" version="1.1" xmlns="http://www.w3.org/2000/svg" xmlns:xlink="http://www.w3.org/1999/xlink" width="400" height="446.5195246179966" viewBox="0, 0, 400,446.5195246179966"><g id="svgg"><path id="path0" d="M258.353 20.091 C 254.933 20.554,253.146 22.502,253.143 25.767 C 253.140 28.710,254.098 30.087,257.048 31.377 C 260.465 32.872,261.285 33.998,260.011 35.449 C 258.939 36.670,257.257 36.725,254.795 35.620 C 253.438 35.011,253.513 34.922,253.384 37.271 L 253.277 39.216 254.558 39.548 C 260.759 41.152,265.288 38.883,265.321 34.155 C 265.343 31.009,264.668 30.057,261.081 28.178 C 258.234 26.687,257.995 26.474,257.986 25.435 C 257.971 23.542,260.154 23.032,263.152 24.226 C 264.349 24.703,264.233 24.856,264.375 22.600 L 264.493 20.724 263.051 20.426 C 261.146 20.031,259.605 19.922,258.353 20.091 M230.433 27.241 C 230.433 34.922,230.403 35.160,229.376 35.648 C 228.752 35.944,228.472 35.942,227.222 35.634 C 226.712 35.508,226.710 35.511,226.708 36.507 C 226.708 37.056,226.655 37.939,226.591 38.469 L 226.476 39.431 227.464 39.725 C 230.392 40.594,233.372 39.653,234.481 37.510 C 235.202 36.116,235.268 35.296,235.270 27.687 L 235.272 20.289 232.852 20.289 L 230.433 20.289 230.433 27.241 M241.497 20.889 C 241.117 22.062,239.466 26.919,238.583 29.458 C 238.093 30.868,237.691 32.124,237.690 32.250 C 237.688 32.377,237.350 33.402,236.938 34.528 C 236.525 35.654,236.035 37.120,235.848 37.785 C 235.661 38.450,235.446 39.141,235.370 39.321 C 235.243 39.621,235.415 39.646,237.566 39.646 L 239.900 39.646 240.605 37.506 L 241.309 35.365 244.132 35.365 L 246.954 35.365 247.468 37.506 L 247.982 39.646 250.468 39.646 C 252.332 39.646,252.955 39.588,252.957 39.414 C 252.958 39.286,252.594 38.092,252.147 36.761 C 251.700 35.430,250.849 32.834,250.255 30.991 C 249.662 29.148,248.783 26.426,248.301 24.942 C 247.820 23.457,247.305 21.824,247.157 21.312 L 246.888 20.382 244.291 20.330 L 241.694 20.279 241.497 20.889 M278.999 21.161 C 278.793 21.641,278.470 22.583,278.281 23.255 C 278.092 23.927,277.582 25.523,277.147 26.803 C 276.213 29.553,274.703 34.046,273.707 37.040 C 273.316 38.218,272.958 39.288,272.911 39.419 C 272.845 39.607,273.335 39.647,275.207 39.606 L 277.587 39.553 277.819 38.809 C 277.946 38.399,278.228 37.457,278.444 36.715 L 278.838 35.365 281.631 35.365 C 283.699 35.365,284.443 35.426,284.500 35.598 C 284.542 35.726,284.836 36.689,285.153 37.738 L 285.730 39.646 288.142 39.646 C 289.468 39.646,290.554 39.595,290.554 39.531 C 290.554 39.468,290.390 38.902,290.191 38.275 C 288.062 31.580,287.324 29.276,285.506 23.639 C 285.291 22.973,284.946 21.947,284.738 21.359 L 284.361 20.289 281.867 20.289 L 279.373 20.289 278.999 21.161 M291.671 29.967 L 291.671 39.646 293.718 39.646 L 295.765 39.646 295.778 33.178 L 295.790 26.710 296.440 28.106 C 296.797 28.874,297.303 30.120,297.564 30.875 C 297.824 31.630,298.364 32.958,298.763 33.825 C 299.162 34.693,299.488 35.496,299.488 35.610 C 299.488 35.724,299.844 36.678,300.279 37.730 L 301.070 39.643 303.909 39.645 L 306.747 39.646 306.747 29.967 L 306.747 20.289 304.607 20.289 L 302.466 20.289 302.461 26.664 L 302.455 33.039 301.377 30.433 C 300.784 29.000,300.170 27.576,300.011 27.268 C 299.853 26.961,299.616 26.377,299.485 25.969 C 299.353 25.562,298.934 24.557,298.554 23.736 C 298.174 22.915,297.757 21.908,297.628 21.498 C 297.240 20.272,297.285 20.289,294.347 20.289 L 291.671 20.289 291.671 29.967 M308.609 22.239 L 308.609 24.189 312.026 24.240 L 315.444 24.290 314.455 25.872 C 313.911 26.743,313.360 27.664,313.231 27.920 C 313.102 28.176,312.596 28.989,312.106 29.726 C 311.616 30.464,311.215 31.114,311.215 31.171 C 311.215 31.227,310.754 31.988,310.191 32.861 C 309.628 33.733,309.167 34.494,309.167 34.551 C 309.167 34.608,309.000 34.868,308.795 35.128 C 308.474 35.536,308.423 35.883,308.423 37.624 L 308.423 39.646 314.751 39.646 L 321.080 39.646 321.080 37.785 L 321.080 35.924 317.543 35.924 C 315.598 35.924,314.007 35.877,314.007 35.821 C 314.007 35.764,314.216 35.410,314.472 35.033 C 314.728 34.656,314.937 34.271,314.937 34.176 C 314.937 34.082,315.132 33.745,315.369 33.428 C 315.771 32.892,317.786 29.641,318.846 27.819 C 319.102 27.378,319.709 26.364,320.195 25.565 L 321.080 24.112 321.080 22.200 L 321.080 20.289 314.844 20.289 L 308.609 20.289 308.609 22.239 M244.791 27.116 C 245.094 28.223,245.418 29.578,245.511 30.125 C 245.605 30.672,245.733 31.280,245.794 31.475 C 245.900 31.807,245.790 31.829,244.013 31.829 C 242.448 31.829,242.137 31.783,242.221 31.563 C 242.380 31.150,243.387 27.599,243.745 26.190 C 244.136 24.651,244.114 24.632,244.791 27.116 M282.780 28.758 C 283.089 29.986,283.383 31.180,283.433 31.410 C 283.523 31.822,283.496 31.829,281.667 31.829 L 279.810 31.829 279.999 31.038 C 280.202 30.190,281.566 25.592,281.753 25.128 C 281.820 24.961,281.936 25.184,282.042 25.686 C 282.139 26.147,282.471 27.529,282.780 28.758 M266.915 29.316 L 266.915 31.084 270.544 31.084 L 274.174 31.084 274.174 29.316 L 274.174 27.548 270.544 27.548 L 266.915 27.548 266.915 29.316 M273.430 43.183 L 273.430 45.230 273.988 45.230 L 274.546 45.230 274.546 43.183 L 274.546 41.135 273.988 41.135 L 273.430 41.135 273.430 43.183 M273.430 47.658 L 273.430 48.581 272.592 48.581 C 271.759 48.581,271.754 48.584,271.754 49.232 C 271.754 49.880,271.759 49.884,272.592 49.884 L 273.430 49.884 273.430 50.721 C 273.430 51.528,273.450 51.559,273.988 51.559 C 274.526 51.559,274.546 51.528,274.546 50.721 L 274.546 49.884 275.477 49.884 L 276.408 49.884 276.408 49.232 L 276.408 48.581 275.477 48.581 L 274.546 48.581 274.546 47.697 C 274.546 46.847,274.524 46.811,273.988 46.773 C 273.437 46.735,273.430 46.747,273.430 47.658 M226.710 51.187 L 226.710 53.792 227.268 53.792 L 227.827 53.792 227.827 51.838 L 227.827 49.884 229.770 49.884 C 231.826 49.884,232.034 49.798,231.843 49.035 C 231.729 48.581,231.725 48.581,229.219 48.581 L 226.710 48.581 226.710 51.187 M233.411 49.232 L 233.411 49.884 235.738 49.884 L 238.064 49.884 238.064 49.232 L 238.064 48.581 235.738 48.581 L 233.411 48.581 233.411 49.232 M239.864 48.705 C 239.795 48.773,239.739 49.066,239.739 49.356 L 239.739 49.884 242.159 49.884 L 244.579 49.884 244.579 49.232 L 244.579 48.581 242.283 48.581 C 241.021 48.581,239.932 48.637,239.864 48.705 M246.192 48.705 C 246.124 48.773,246.068 49.066,246.068 49.356 L 246.068 49.884 248.488 49.884 L 250.907 49.884 250.907 49.232 L 250.907 48.581 248.612 48.581 C 247.349 48.581,246.260 48.637,246.192 48.705 M252.583 49.232 L 252.583 49.884 254.909 49.884 L 257.236 49.884 257.236 49.232 L 257.236 48.581 254.909 48.581 L 252.583 48.581 252.583 49.232 M259.041 48.699 C 258.969 48.771,258.911 49.066,258.911 49.356 L 258.911 49.884 261.343 49.884 L 263.774 49.884 263.716 49.279 L 263.658 48.674 261.414 48.622 C 260.180 48.593,259.112 48.628,259.041 48.699 M265.364 48.705 C 265.295 48.773,265.240 49.066,265.240 49.356 L 265.240 49.884 267.659 49.884 L 270.079 49.884 270.079 49.232 L 270.079 48.581 267.783 48.581 C 266.521 48.581,265.432 48.637,265.364 48.705 M278.083 49.232 L 278.083 49.884 280.409 49.884 L 282.736 49.884 282.736 49.232 L 282.736 48.581 280.409 48.581 L 278.083 48.581 278.083 49.232 M284.411 49.232 L 284.411 49.884 286.831 49.884 L 289.251 49.884 289.251 49.232 L 289.251 48.581 286.831 48.581 L 284.411 48.581 284.411 49.232 M290.855 48.870 C 290.480 49.847,290.564 49.884,293.171 49.884 L 295.603 49.884 295.545 49.279 L 295.486 48.674 293.228 48.622 C 291.292 48.577,290.954 48.612,290.855 48.870 M297.255 49.232 L 297.255 49.884 299.581 49.884 L 301.908 49.884 301.908 49.232 L 301.908 48.581 299.581 48.581 L 297.255 48.581 297.255 49.232 M303.713 48.699 C 303.641 48.771,303.583 49.066,303.583 49.356 L 303.583 49.884 306.015 49.884 L 308.446 49.884 308.388 49.279 L 308.329 48.674 306.086 48.622 C 304.852 48.593,303.784 48.628,303.713 48.699 M310.041 48.699 C 309.970 48.771,309.912 49.066,309.912 49.356 L 309.912 49.884 312.343 49.884 L 314.775 49.884 314.716 49.279 L 314.658 48.674 312.414 48.622 C 311.180 48.593,310.112 48.628,310.041 48.699 M316.426 49.232 L 316.426 49.884 318.288 49.884 L 320.149 49.884 320.149 51.838 L 320.149 53.792 320.707 53.792 L 321.266 53.792 321.266 51.187 L 321.266 48.581 318.846 48.581 L 316.426 48.581 316.426 49.232 M273.430 55.654 L 273.430 58.074 273.988 58.074 L 274.546 58.074 274.546 55.654 L 274.546 53.234 273.988 53.234 L 273.430 53.234 273.430 55.654 M226.710 57.701 L 226.710 60.121 227.268 60.121 L 227.827 60.121 227.827 57.701 L 227.827 55.282 227.268 55.282 L 226.710 55.282 226.710 57.701 M320.149 57.701 L 320.149 60.121 320.707 60.121 L 321.266 60.121 321.266 57.701 L 321.266 55.282 320.707 55.282 L 320.149 55.282 320.149 57.701 M269.832 58.631 C 264.874 59.253,258.273 61.435,255.343 63.421 C 254.900 63.721,254.382 64.024,254.193 64.092 C 252.004 64.892,245.874 70.720,243.193 74.553 C 242.154 76.038,241.910 76.449,240.639 78.859 C 239.528 80.965,237.999 85.025,237.695 86.673 C 237.604 87.169,237.357 88.497,237.145 89.623 C 235.954 95.981,236.694 103.046,239.230 109.510 C 240.219 112.032,241.963 115.344,242.902 116.483 C 243.210 116.857,243.462 117.241,243.462 117.337 C 243.462 117.918,247.818 122.644,249.884 124.303 C 250.600 124.878,251.395 125.540,251.650 125.774 C 251.905 126.007,252.175 126.198,252.251 126.198 C 252.327 126.198,252.807 126.512,253.318 126.896 C 254.559 127.829,258.724 129.925,261.145 130.835 C 266.889 132.994,274.910 133.656,280.503 132.432 C 281.168 132.287,281.964 132.164,282.271 132.160 C 282.742 132.154,284.305 131.656,288.134 130.293 C 293.196 128.492,299.760 123.530,303.391 118.761 C 305.622 115.830,308.636 110.349,309.080 108.416 C 309.150 108.113,309.451 107.068,309.749 106.096 C 310.263 104.418,311.028 100.575,311.028 99.672 L 311.028 99.253 302.047 99.122 C 297.108 99.050,292.441 99.019,291.676 99.054 L 290.286 99.116 289.894 100.530 C 289.208 103.005,287.687 105.481,285.609 107.510 C 284.545 108.547,281.500 110.748,281.125 110.750 C 281.039 110.750,280.359 110.998,279.615 111.302 C 270.369 115.069,259.636 108.985,257.529 98.781 C 257.044 96.432,256.899 96.603,259.376 96.603 L 261.517 96.603 261.517 96.045 L 261.517 95.486 259.376 95.486 L 257.236 95.486 257.239 94.788 C 257.244 93.726,257.719 91.705,258.382 89.923 C 262.299 79.404,275.811 75.793,284.424 82.964 C 285.746 84.064,287.422 86.031,287.910 87.054 C 288.117 87.488,288.330 87.669,288.634 87.669 L 289.065 87.669 289.065 74.760 L 289.065 61.851 287.808 61.276 C 287.117 60.959,285.945 60.528,285.202 60.318 C 284.460 60.107,283.288 59.773,282.597 59.576 C 279.374 58.655,273.251 58.202,269.832 58.631 M226.710 64.123 L 226.710 66.450 227.268 66.450 L 227.827 66.450 227.827 64.123 L 227.827 61.796 227.268 61.796 L 226.710 61.796 226.710 64.123 M320.149 64.123 L 320.149 66.450 320.707 66.450 L 321.266 66.450 321.266 64.123 L 321.266 61.796 320.707 61.796 L 320.149 61.796 320.149 64.123 M226.842 68.055 C 226.769 68.127,226.710 69.220,226.710 70.482 L 226.710 72.778 227.274 72.778 L 227.838 72.778 227.786 70.405 C 227.734 68.017,227.489 67.408,226.842 68.055 M320.281 68.055 C 320.208 68.127,320.149 69.220,320.149 70.482 L 320.149 72.778 320.713 72.778 L 321.277 72.778 321.225 70.405 C 321.172 68.017,320.928 67.408,320.281 68.055 M226.710 76.873 L 226.710 79.293 227.268 79.293 L 227.827 79.293 227.827 76.873 L 227.827 74.453 227.268 74.453 L 226.710 74.453 226.710 76.873 M320.149 76.873 L 320.149 79.293 320.707 79.293 L 321.266 79.293 321.266 76.873 L 321.266 74.453 320.707 74.453 L 320.149 74.453 320.149 76.873 M226.710 83.295 L 226.710 85.621 227.268 85.621 L 227.827 85.621 227.827 83.295 L 227.827 80.968 227.268 80.968 L 226.710 80.968 226.710 83.295 M273.430 83.295 L 273.430 85.621 273.988 85.621 L 274.546 85.621 274.546 83.295 L 274.546 80.968 273.988 80.968 L 273.430 80.968 273.430 83.295 M320.149 83.295 L 320.149 85.621 320.707 85.621 L 321.266 85.621 321.266 83.295 L 321.266 80.968 320.707 80.968 L 320.149 80.968 320.149 83.295 M226.710 89.623 L 226.710 91.950 227.268 91.950 L 227.827 91.950 227.827 89.623 L 227.827 87.296 227.268 87.296 L 226.710 87.296 226.710 89.623 M320.149 89.623 L 320.149 91.950 320.707 91.950 L 321.266 91.950 321.266 89.623 L 321.266 87.296 320.707 87.296 L 320.149 87.296 320.149 89.623 M273.430 89.809 L 273.430 92.136 273.988 92.136 L 274.546 92.136 274.546 89.809 L 274.546 87.483 273.988 87.483 L 273.430 87.483 273.430 89.809 M226.710 94.556 L 226.710 95.486 225.779 95.486 C 224.869 95.486,224.849 95.499,224.849 96.045 C 224.849 96.591,224.869 96.603,225.779 96.603 L 226.710 96.603 226.710 97.534 C 226.710 98.444,226.723 98.464,227.268 98.464 C 227.814 98.464,227.827 98.444,227.827 97.534 L 227.827 96.603 228.769 96.603 L 229.712 96.603 229.653 96.003 C 229.596 95.411,229.584 95.404,228.711 95.459 L 227.827 95.514 227.827 94.570 C 227.827 93.644,227.816 93.625,227.268 93.625 C 226.723 93.625,226.710 93.646,226.710 94.556 M273.430 94.556 L 273.430 95.486 271.475 95.486 L 269.521 95.486 269.521 96.045 L 269.521 96.603 271.475 96.603 L 273.430 96.603 273.430 97.534 C 273.430 98.425,273.451 98.464,273.941 98.464 L 274.453 98.464 274.453 96.045 L 274.453 93.625 273.941 93.625 C 273.451 93.625,273.430 93.664,273.430 94.556 M212.192 96.045 L 212.192 96.603 214.518 96.603 L 216.845 96.603 216.845 96.045 L 216.845 95.486 214.518 95.486 L 212.192 95.486 212.192 96.045 M218.401 95.765 C 218.119 96.502,218.414 96.603,220.841 96.603 L 223.174 96.603 223.174 96.045 L 223.174 95.486 220.841 95.486 C 218.939 95.486,218.489 95.538,218.401 95.765 M231.351 95.533 C 231.344 95.558,231.307 95.810,231.270 96.091 L 231.203 96.603 233.610 96.603 L 236.017 96.603 236.017 96.045 L 236.017 95.486 233.690 95.486 C 232.410 95.486,231.358 95.507,231.351 95.533 M263.006 96.045 L 263.006 96.603 265.426 96.603 L 267.846 96.603 267.846 96.045 L 267.846 95.486 265.426 95.486 L 263.006 95.486 263.006 96.045 M226.710 102.373 L 226.710 104.793 227.268 104.793 L 227.827 104.793 227.827 102.373 L 227.827 99.953 227.268 99.953 L 226.710 99.953 226.710 102.373 M273.430 102.373 L 273.430 104.793 273.988 104.793 L 274.546 104.793 274.546 102.373 L 274.546 99.953 273.988 99.953 L 273.430 99.953 273.430 102.373 M320.149 102.373 L 320.149 104.793 320.707 104.793 L 321.266 104.793 321.266 102.373 L 321.266 99.953 320.707 99.953 L 320.149 99.953 320.149 102.373 M226.710 108.795 L 226.710 111.121 227.268 111.121 L 227.827 111.121 227.827 108.795 L 227.827 106.468 227.268 106.468 L 226.710 106.468 226.710 108.795 M273.430 108.795 L 273.430 111.121 273.988 111.121 L 274.546 111.121 274.546 108.795 L 274.546 106.468 273.988 106.468 L 273.430 106.468 273.430 108.795 M320.149 108.795 L 320.149 111.121 320.707 111.121 L 321.266 111.121 321.266 108.795 L 321.266 106.468 320.707 106.468 L 320.149 106.468 320.149 108.795 M226.751 115.170 L 226.803 117.543 227.268 117.543 L 227.734 117.543 227.786 115.170 L 227.838 112.797 227.268 112.797 L 226.699 112.797 226.751 115.170 M320.190 115.170 L 320.242 117.543 320.754 117.602 L 321.266 117.661 321.266 115.229 L 321.266 112.797 320.702 112.797 L 320.138 112.797 320.190 115.170 M226.710 121.545 L 226.710 123.965 227.268 123.965 L 227.827 123.965 227.827 121.545 L 227.827 119.125 227.268 119.125 L 226.710 119.125 226.710 121.545 M320.149 121.545 L 320.149 123.965 320.707 123.965 L 321.266 123.965 321.266 121.545 L 321.266 119.125 320.707 119.125 L 320.149 119.125 320.149 121.545 M226.710 127.966 L 226.710 130.293 227.268 130.293 L 227.827 130.293 227.827 127.966 L 227.827 125.640 227.268 125.640 L 226.710 125.640 226.710 127.966 M320.149 127.966 L 320.149 130.293 320.707 130.293 L 321.266 130.293 321.266 127.966 L 321.266 125.640 320.707 125.640 L 320.149 125.640 320.149 127.966 M226.710 134.295 L 226.710 136.622 227.268 136.622 L 227.827 136.622 227.827 134.295 L 227.827 131.968 227.268 131.968 L 226.710 131.968 226.710 134.295 M320.149 134.295 L 320.149 136.622 320.707 136.622 L 321.266 136.622 321.266 134.295 L 321.266 131.968 320.707 131.968 L 320.149 131.968 320.149 134.295 M273.561 134.132 C 273.489 134.205,273.430 135.297,273.430 136.560 L 273.430 138.855 273.993 138.855 L 274.557 138.855 274.505 136.482 C 274.453 134.094,274.208 133.485,273.561 134.132 M226.710 140.908 L 226.710 143.519 229.269 143.467 L 231.829 143.416 231.829 142.857 L 231.829 142.299 229.828 142.246 L 227.827 142.193 227.827 140.245 L 227.827 138.297 227.268 138.297 L 226.710 138.297 226.710 140.908 M320.149 140.437 L 320.149 142.206 318.288 142.206 L 316.426 142.206 316.426 142.857 L 316.426 143.509 318.846 143.509 L 321.266 143.509 321.266 141.089 L 321.266 138.669 320.707 138.669 L 320.149 138.669 320.149 140.437 M273.430 141.368 L 273.430 142.206 272.592 142.206 C 271.759 142.206,271.754 142.209,271.754 142.857 C 271.754 143.505,271.759 143.509,272.592 143.509 L 273.430 143.509 273.430 144.439 C 273.430 145.349,273.442 145.370,273.988 145.370 C 274.534 145.370,274.546 145.349,274.546 144.439 L 274.546 143.509 275.477 143.509 L 276.408 143.509 276.408 142.857 L 276.408 142.206 275.477 142.206 L 274.546 142.206 274.546 141.368 C 274.546 140.562,274.526 140.530,273.988 140.530 C 273.450 140.530,273.430 140.562,273.430 141.368 M233.446 142.811 L 233.504 143.416 235.784 143.468 L 238.064 143.520 238.064 142.863 L 238.064 142.206 235.726 142.206 L 233.387 142.206 233.446 142.811 M239.811 142.474 C 239.487 143.319,239.714 143.413,242.208 143.468 L 244.579 143.520 244.579 142.863 L 244.579 142.206 242.246 142.206 C 240.387 142.206,239.893 142.260,239.811 142.474 M246.103 142.811 L 246.161 143.416 248.488 143.416 L 250.814 143.416 250.873 142.811 L 250.931 142.206 248.488 142.206 L 246.044 142.206 246.103 142.811 M252.583 142.857 L 252.583 143.509 254.909 143.509 L 257.236 143.509 257.236 142.857 L 257.236 142.206 254.909 142.206 L 252.583 142.206 252.583 142.857 M258.945 142.805 L 259.004 143.416 261.331 143.416 L 263.658 143.416 263.658 142.857 L 263.658 142.299 261.272 142.247 L 258.887 142.194 258.945 142.805 M265.240 142.863 L 265.240 143.520 267.613 143.468 L 269.986 143.416 270.044 142.811 L 270.103 142.206 267.671 142.206 L 265.240 142.206 265.240 142.863 M278.118 142.811 L 278.176 143.416 280.456 143.468 L 282.736 143.520 282.736 142.863 L 282.736 142.206 280.398 142.206 L 278.059 142.206 278.118 142.811 M284.446 142.811 L 284.504 143.416 286.878 143.468 L 289.251 143.520 289.251 142.863 L 289.251 142.206 286.819 142.206 L 284.388 142.206 284.446 142.811 M290.775 142.811 L 290.833 143.416 293.206 143.468 L 295.579 143.520 295.579 142.863 L 295.579 142.206 293.148 142.206 L 290.716 142.206 290.775 142.811 M297.255 142.857 L 297.255 143.509 299.581 143.509 L 301.908 143.509 301.908 142.857 L 301.908 142.206 299.581 142.206 L 297.255 142.206 297.255 142.857 M303.618 142.811 L 303.676 143.416 306.003 143.416 L 308.329 143.416 308.388 142.811 L 308.446 142.206 306.003 142.206 L 303.559 142.206 303.618 142.811 M309.946 142.811 L 310.005 143.416 312.331 143.416 L 314.658 143.416 314.716 142.811 L 314.775 142.206 312.331 142.206 L 309.888 142.206 309.946 142.811 M323.384 144.334 C 322.139 144.876,321.382 146.544,321.803 147.816 C 322.523 149.993,325.521 150.503,326.795 148.664 C 328.437 146.295,325.997 143.197,323.384 144.334 M325.755 145.385 C 327.785 146.831,325.645 150.051,323.497 148.783 C 322.150 147.987,322.262 145.858,323.688 145.133 C 324.414 144.764,324.979 144.833,325.755 145.385 M323.499 146.921 C 323.499 147.774,323.549 148.522,323.611 148.583 C 323.842 148.815,324.244 148.476,324.244 148.049 C 324.244 147.463,324.544 147.477,324.693 148.069 C 324.778 148.409,324.934 148.534,325.271 148.534 C 325.840 148.534,325.860 148.229,325.328 147.662 C 325.106 147.425,325.024 147.231,325.147 147.231 C 325.569 147.231,325.772 146.295,325.454 145.810 C 325.222 145.456,325.003 145.370,324.333 145.370 L 323.499 145.370 323.499 146.921 M324.769 146.363 C 324.805 146.546,324.710 146.673,324.537 146.673 C 324.364 146.673,324.244 146.514,324.244 146.285 C 324.244 145.831,324.679 145.896,324.769 146.363 M273.430 149.372 L 273.430 151.698 273.988 151.698 L 274.546 151.698 274.546 149.372 L 274.546 147.045 273.988 147.045 L 273.430 147.045 273.430 149.372 M273.430 155.700 L 273.430 158.027 273.988 158.027 L 274.546 158.027 274.546 155.700 L 274.546 153.374 273.988 153.374 L 273.430 153.374 273.430 155.700 M367.620 174.193 C 367.514 174.588,367.381 175.321,367.325 175.822 C 367.268 176.323,366.763 179.204,366.201 182.224 C 363.697 195.690,363.878 194.989,363.316 193.392 C 362.941 192.328,362.782 191.952,361.958 190.168 C 361.587 189.367,361.284 188.636,361.284 188.543 C 361.284 188.450,360.899 187.514,360.429 186.463 C 359.959 185.411,359.467 184.258,359.335 183.899 C 359.204 183.541,358.762 182.536,358.353 181.666 C 356.673 178.090,355.699 175.928,355.291 174.872 L 354.861 173.755 348.981 173.706 L 343.101 173.657 342.593 176.684 C 342.314 178.349,341.793 181.303,341.436 183.248 C 341.078 185.193,340.618 187.790,340.413 189.018 C 340.208 190.247,339.627 193.471,339.122 196.184 C 338.617 198.897,338.199 201.368,338.195 201.675 C 338.190 201.982,338.039 202.946,337.858 203.816 L 337.530 205.398 336.841 201.861 C 336.462 199.916,336.153 198.142,336.154 197.919 C 336.155 197.696,335.782 195.602,335.324 193.266 C 334.866 190.930,334.370 188.181,334.223 187.157 C 334.076 186.133,333.647 183.746,333.271 181.852 C 332.895 179.958,332.514 177.822,332.426 177.106 C 332.338 176.389,332.178 175.352,332.071 174.800 C 331.963 174.249,331.875 173.767,331.875 173.730 C 331.875 173.693,328.992 173.662,325.467 173.662 L 319.059 173.662 318.221 175.012 C 317.761 175.754,317.278 176.612,317.148 176.919 C 317.017 177.227,316.467 178.244,315.924 179.181 C 315.381 180.118,314.937 180.945,314.937 181.018 C 314.937 181.092,314.654 181.623,314.307 182.200 C 313.961 182.776,313.322 183.918,312.886 184.737 C 310.807 188.649,310.402 189.391,309.807 190.378 C 309.456 190.961,309.168 191.507,309.168 191.591 C 309.167 191.674,308.804 192.345,308.360 193.080 C 307.917 193.815,307.328 194.877,307.051 195.440 C 306.775 196.003,305.922 197.594,305.156 198.976 C 304.390 200.358,303.630 201.782,303.466 202.141 C 303.302 202.499,302.995 203.036,302.782 203.335 C 302.570 203.633,302.044 204.582,301.612 205.442 L 300.827 207.006 300.262 206.185 C 299.952 205.734,299.486 204.759,299.227 204.018 C 298.968 203.277,298.571 202.370,298.344 202.002 C 298.117 201.635,297.438 200.322,296.835 199.085 C 296.233 197.848,295.290 195.914,294.739 194.788 C 292.431 190.067,291.788 188.524,292.062 188.361 C 292.402 188.160,294.210 186.637,296.586 184.551 C 297.635 183.630,298.749 182.666,299.062 182.410 C 299.707 181.883,304.817 177.440,305.272 177.013 C 305.434 176.859,306.252 176.147,307.088 175.431 C 309.324 173.515,309.751 173.638,301.088 173.701 L 293.568 173.755 289.781 177.601 C 285.950 181.492,282.591 185.018,281.742 186.040 C 281.024 186.905,281.013 186.613,281.627 183.043 C 282.844 175.967,283.117 174.303,283.113 173.985 C 283.109 173.677,282.721 173.660,276.838 173.706 L 270.568 173.755 269.979 176.733 C 269.206 180.639,268.645 183.769,268.511 184.923 C 268.451 185.435,268.105 187.362,267.741 189.204 C 267.377 191.047,266.965 193.392,266.825 194.416 C 266.685 195.440,266.225 198.036,265.802 200.186 C 265.380 202.336,264.915 204.940,264.769 205.973 C 264.623 207.006,264.336 208.718,264.131 209.777 C 263.926 210.836,263.805 211.750,263.863 211.807 C 263.920 211.865,266.753 211.942,270.157 211.979 L 276.346 212.045 276.558 211.514 C 276.799 210.909,277.970 204.481,278.249 202.230 C 278.478 200.385,278.545 200.208,279.132 199.893 C 279.391 199.755,279.770 199.408,279.973 199.122 C 280.890 197.834,282.178 197.373,282.178 198.334 C 282.178 198.467,282.584 199.441,283.081 200.498 C 284.093 202.649,285.273 205.259,286.180 207.352 C 286.513 208.120,287.135 209.482,287.562 210.378 L 288.339 212.008 299.524 211.960 C 309.245 211.919,310.727 211.876,310.852 211.633 C 310.931 211.480,311.428 210.454,311.956 209.353 L 312.917 207.352 318.926 207.352 L 324.936 207.352 325.148 209.220 C 325.265 210.248,325.361 211.295,325.361 211.548 L 325.361 212.008 336.748 211.960 L 348.136 211.913 348.949 207.445 C 349.397 204.988,350.177 200.758,350.684 198.046 C 351.191 195.333,351.606 192.912,351.606 192.665 C 351.605 192.163,352.536 194.000,355.602 200.558 C 358.502 206.762,359.351 208.556,360.225 210.330 L 361.005 211.913 367.088 211.962 C 372.760 212.007,373.177 211.989,373.272 211.682 C 373.479 211.019,374.690 204.597,374.863 203.250 C 374.962 202.486,375.303 200.521,375.622 198.883 C 375.941 197.245,376.327 195.109,376.480 194.137 C 376.727 192.561,377.421 188.634,378.156 184.644 C 378.297 183.876,378.545 182.327,378.706 181.201 C 378.867 180.074,379.212 178.148,379.472 176.919 C 379.732 175.691,379.986 174.414,380.035 174.081 L 380.124 173.476 373.969 173.476 L 367.813 173.476 367.620 174.193 M323.458 194.463 L 323.979 198.790 320.482 198.790 C 318.558 198.790,316.985 198.749,316.985 198.699 C 316.985 198.649,317.401 197.749,317.910 196.698 C 318.419 195.648,319.126 194.160,319.480 193.392 C 319.834 192.624,320.513 191.159,320.988 190.135 C 321.463 189.111,322.034 187.864,322.257 187.364 L 322.662 186.454 322.799 188.294 C 322.875 189.307,323.171 192.082,323.458 194.463 " stroke="none" fill="#2655a0" fill-rule="evenodd"></path><path id="path1" d="M44.435 58.208 C 44.766 58.249,45.352 58.250,45.738 58.209 C 46.124 58.169,45.854 58.135,45.137 58.135 C 44.421 58.134,44.105 58.167,44.435 58.208 M225.268 95.433 C 225.549 95.476,226.010 95.476,226.291 95.433 C 226.573 95.391,226.342 95.356,225.779 95.356 C 225.216 95.356,224.986 95.391,225.268 95.433 M228.153 95.431 C 228.383 95.476,228.760 95.476,228.990 95.431 C 229.221 95.387,229.032 95.351,228.571 95.351 C 228.111 95.351,227.922 95.387,228.153 95.431 M303.350 99.161 C 304.093 99.196,305.307 99.196,306.049 99.161 C 306.792 99.126,306.184 99.097,304.700 99.097 C 303.215 99.097,302.608 99.126,303.350 99.161 M98.651 287.366 C 92.954 288.617,92.159 299.324,97.636 301.028 C 98.691 301.356,102.527 302.887,103.472 303.357 C 107.014 305.119,106.514 310.730,102.714 311.858 C 99.333 312.862,96.603 310.659,96.603 306.926 L 96.603 305.631 95.021 305.631 L 93.439 305.631 93.442 306.887 C 93.455 312.108,96.099 314.937,100.962 314.937 C 106.249 314.937,108.884 312.266,108.887 306.904 C 108.889 302.530,107.405 300.828,102.110 299.131 C 98.327 297.919,96.988 296.607,96.979 294.103 C 96.961 288.687,104.084 288.306,105.035 293.671 L 105.241 294.835 106.715 294.835 L 108.189 294.835 108.100 293.206 C 107.851 288.662,103.891 286.215,98.651 287.366 M19.916 300.975 L 19.916 314.379 21.591 314.379 L 23.267 314.379 23.267 308.143 L 23.267 301.908 27.455 301.908 L 31.643 301.908 31.643 300.419 L 31.643 298.930 27.455 298.930 L 23.267 298.930 23.267 294.835 L 23.267 290.740 27.834 290.740 L 32.402 290.740 32.348 289.204 L 32.294 287.669 26.105 287.620 L 19.916 287.571 19.916 300.975 M77.947 291.504 L 77.897 295.448 77.309 294.953 C 75.572 293.491,72.822 293.518,70.641 295.018 C 67.026 297.506,66.684 309.007,70.105 313.073 C 71.753 315.031,75.740 315.310,77.415 313.584 L 78.176 312.800 78.176 313.590 L 78.176 314.379 79.666 314.379 L 81.156 314.379 81.109 301.024 L 81.061 287.669 79.529 287.615 L 77.997 287.561 77.947 291.504 M131.267 288.054 C 129.775 288.798,129.490 289.410,129.395 292.079 L 129.317 294.276 127.944 294.276 L 126.570 294.276 126.570 295.672 L 126.570 297.068 127.966 297.068 L 129.362 297.068 129.362 305.724 L 129.362 314.379 130.945 314.379 L 132.527 314.379 132.527 305.724 L 132.527 297.068 133.923 297.068 L 135.319 297.068 135.319 295.672 L 135.319 294.276 133.923 294.276 L 132.527 294.276 132.527 292.708 C 132.527 290.750,132.925 290.272,134.435 290.415 L 135.319 290.499 135.319 289.037 L 135.319 287.576 133.773 287.576 C 132.486 287.576,132.067 287.656,131.267 288.054 M153.932 291.671 L 153.932 294.276 152.536 294.276 L 151.140 294.276 151.140 295.672 L 151.140 297.068 152.536 297.068 L 153.932 297.068 153.932 304.734 C 153.932 314.783,153.867 314.623,157.965 314.646 C 160.396 314.660,160.197 314.793,160.111 313.215 L 160.043 311.959 158.933 311.959 C 158.004 311.959,157.750 311.885,157.367 311.502 L 156.910 311.045 156.910 304.057 L 156.910 297.068 158.489 297.068 C 160.294 297.068,160.336 297.026,160.226 295.288 L 160.168 294.369 158.539 294.316 L 156.910 294.262 156.910 291.663 L 156.910 289.065 155.421 289.065 L 153.932 289.065 153.932 291.671 M38.852 293.921 C 35.286 294.761,33.639 298.074,33.632 304.421 C 33.623 312.455,36.342 315.717,42.202 314.701 C 46.169 314.013,47.525 311.380,47.543 304.328 L 47.554 300.326 46.940 298.557 C 45.595 294.681,42.691 293.016,38.852 293.921 M55.887 293.935 C 52.248 294.750,50.396 298.882,50.690 305.529 C 50.954 311.465,52.599 314.191,56.245 314.730 C 62.152 315.602,64.669 312.522,64.669 304.421 C 64.669 296.235,61.660 292.642,55.887 293.935 M116.656 293.908 C 114.260 294.515,113.069 296.050,112.722 298.976 L 112.618 299.860 114.170 299.860 L 115.723 299.860 115.825 298.737 C 116.005 296.753,117.958 295.850,119.988 296.813 C 121.260 297.417,121.613 300.379,120.521 301.291 C 119.885 301.823,117.438 303.025,116.992 303.025 C 116.499 303.025,114.615 304.057,113.795 304.776 C 110.707 307.486,112.025 314.295,115.713 314.681 C 118.127 314.933,119.245 314.656,120.377 313.523 C 121.558 312.343,121.483 312.370,121.637 313.071 C 121.862 314.096,122.681 314.565,124.247 314.565 C 125.835 314.565,125.773 314.626,125.680 313.144 C 125.618 312.148,125.566 312.013,125.269 312.091 C 124.210 312.368,124.151 311.982,124.151 304.759 C 124.151 296.174,123.980 295.466,121.625 294.290 C 120.674 293.815,117.873 293.600,116.656 293.908 M142.081 293.897 C 139.885 294.420,138.339 296.427,137.606 299.706 C 137.169 301.663,137.175 307.459,137.617 309.249 C 137.958 310.629,138.815 312.704,139.045 312.704 C 139.122 312.704,139.227 312.867,139.279 313.068 C 139.586 314.240,142.572 315.112,144.975 314.732 C 147.864 314.274,149.392 312.330,149.753 308.655 L 149.885 307.306 148.372 307.306 L 146.859 307.306 146.859 308.016 C 146.859 310.029,145.545 312.088,144.144 312.272 C 141.898 312.567,140.525 310.204,140.529 306.049 L 140.530 304.700 145.207 304.700 L 149.884 304.700 149.795 302.047 C 149.584 295.743,146.778 292.778,142.081 293.897 M160.817 294.602 C 160.817 294.781,161.144 296.017,161.545 297.348 C 162.999 302.177,164.044 305.739,164.220 306.468 C 164.319 306.878,164.820 308.595,165.334 310.284 C 166.590 314.410,166.578 315.486,165.256 317.193 C 164.425 318.267,163.606 318.467,161.982 317.994 C 161.574 317.875,161.564 317.908,161.564 319.268 C 161.564 320.887,161.563 320.887,163.611 320.890 C 167.149 320.894,168.317 319.426,170.122 312.704 C 170.739 310.405,171.665 307.248,172.934 303.118 C 173.437 301.480,173.849 300.025,173.849 299.885 C 173.848 299.746,174.183 298.583,174.593 297.302 C 175.617 294.098,175.666 294.276,173.764 294.276 L 172.190 294.276 172.071 294.974 C 172.006 295.358,171.551 297.096,171.060 298.837 C 170.569 300.577,170.042 302.503,169.889 303.118 C 169.258 305.656,168.176 309.152,168.060 309.025 C 167.903 308.850,166.217 302.926,166.217 302.546 C 166.217 302.333,164.724 296.762,164.063 294.509 C 163.943 294.101,160.819 294.190,160.817 294.602 M145.357 297.059 C 146.051 297.553,146.631 299.065,146.792 300.796 L 146.912 302.094 143.694 302.094 L 140.476 302.094 140.591 300.745 C 140.906 297.041,143.028 295.401,145.357 297.059 M42.265 296.982 C 45.016 298.404,45.296 309.058,42.645 311.453 C 40.404 313.478,37.642 311.798,37.049 308.050 C 35.825 300.321,38.352 294.959,42.265 296.982 M59.292 297.017 C 62.467 298.531,62.200 310.322,58.954 311.933 C 55.354 313.721,53.391 309.399,54.133 301.314 C 54.500 297.313,56.471 295.672,59.292 297.017 M76.136 297.115 C 78.758 298.437,79.015 309.200,76.474 311.257 C 73.901 313.340,71.725 311.392,71.275 306.604 C 70.581 299.221,72.579 295.321,76.136 297.115 M121.129 306.608 C 120.996 310.368,119.880 312.145,117.651 312.145 C 115.719 312.145,114.660 309.305,115.776 307.117 C 116.139 306.406,118.679 304.888,119.511 304.885 C 119.657 304.884,120.028 304.723,120.335 304.526 C 121.209 303.967,121.221 303.999,121.129 306.608 M32.568 332.500 C 29.074 333.253,26.914 336.509,27.240 340.530 C 27.564 344.532,28.887 345.770,35.187 347.962 C 38.037 348.954,39.079 350.188,39.085 352.580 C 39.093 355.685,37.523 357.376,34.632 357.376 C 31.734 357.376,30.279 355.805,30.017 352.396 L 29.914 351.047 28.432 351.047 L 26.950 351.047 27.021 353.234 C 27.130 356.616,28.308 358.597,30.863 359.694 C 33.772 360.944,38.727 360.209,40.251 358.301 C 40.481 358.013,40.857 357.540,41.086 357.251 C 41.934 356.179,42.346 354.499,42.335 352.164 C 42.315 347.668,40.777 346.126,34.136 343.941 C 29.094 342.282,29.032 335.880,34.053 335.285 C 36.420 335.005,38.513 336.871,38.525 339.274 L 38.530 340.065 40.043 340.065 L 41.556 340.065 41.465 338.623 C 41.173 333.985,37.478 331.443,32.568 332.500 M52.303 332.434 C 49.889 332.844,47.801 334.545,46.761 336.951 C 45.079 340.840,45.152 352.060,46.885 355.977 C 48.718 360.119,53.840 361.645,58.311 359.380 C 59.849 358.601,61.774 355.795,61.792 354.304 C 61.794 354.100,61.939 353.304,62.113 352.536 C 62.632 350.246,62.582 342.524,62.030 339.693 C 60.937 334.091,57.528 331.546,52.303 332.434 M78.949 333.167 C 76.224 334.176,74.893 336.345,74.688 340.112 L 74.590 341.926 76.211 341.926 L 77.833 341.926 77.717 341.398 C 77.105 338.612,78.940 335.896,81.433 335.896 C 83.868 335.896,84.894 337.071,85.028 340.017 C 85.161 342.925,84.561 344.078,81.455 346.879 C 75.878 351.907,74.658 353.811,74.337 357.986 L 74.215 359.574 75.404 359.694 C 76.059 359.760,79.316 359.789,82.643 359.758 L 88.692 359.702 88.747 358.260 L 88.801 356.817 83.209 356.817 C 76.742 356.817,77.148 356.979,78.207 354.828 C 78.928 353.364,80.614 351.513,82.905 349.670 C 87.995 345.576,89.505 341.926,88.044 337.246 C 86.936 333.695,82.680 331.787,78.949 333.167 M96.510 333.054 C 95.738 333.308,94.903 333.710,94.742 333.904 C 94.691 333.966,94.481 334.106,94.276 334.216 C 93.131 334.832,92.043 337.523,91.837 340.249 L 91.710 341.926 93.291 341.926 L 94.873 341.926 94.986 340.326 C 95.407 334.358,101.953 334.056,102.333 339.987 C 102.524 342.959,101.679 344.261,96.660 348.720 C 93.274 351.729,91.835 354.343,91.629 357.859 L 91.530 359.552 92.417 359.674 C 92.905 359.741,96.141 359.795,99.607 359.795 L 105.910 359.795 105.910 358.306 L 105.910 356.817 100.322 356.817 L 94.735 356.817 94.858 356.305 C 95.357 354.231,97.126 352.104,100.884 349.061 C 104.510 346.124,105.724 343.869,105.724 340.070 C 105.724 336.673,104.455 334.556,101.629 333.240 C 100.757 332.834,97.530 332.717,96.510 333.054 M114.058 333.081 C 110.141 334.159,108.813 337.551,108.809 346.487 C 108.805 356.253,110.381 359.622,115.253 360.259 C 119.245 360.781,121.632 358.593,122.803 353.341 C 123.226 351.440,123.280 341.398,122.876 339.600 C 121.698 334.349,118.375 331.893,114.058 333.081 M131.224 333.105 C 127.342 334.146,126.105 337.425,126.105 346.673 C 126.105 356.361,127.514 359.457,132.259 360.196 C 135.642 360.723,138.338 359.063,139.383 355.810 C 140.899 351.091,140.907 341.219,139.397 337.273 C 138.042 333.730,134.889 332.122,131.224 333.105 M148.455 333.079 C 147.951 333.224,147.305 333.515,147.020 333.726 C 146.735 333.936,146.422 334.109,146.324 334.109 C 144.563 334.109,142.945 341.402,143.203 348.168 C 143.550 357.262,146.052 360.952,151.402 360.258 C 155.505 359.725,157.154 356.913,157.667 349.572 C 158.529 337.231,155.137 331.158,148.455 333.079 M19.916 346.301 L 19.916 359.609 21.591 359.609 L 23.267 359.609 23.267 346.301 L 23.267 332.992 21.591 332.992 L 19.916 332.992 19.916 346.301 M55.883 335.719 C 58.320 336.659,59.190 339.475,59.190 346.422 C 59.190 354.609,57.903 357.376,54.094 357.376 C 50.161 357.376,48.875 354.615,48.891 346.208 C 48.909 337.342,51.197 333.910,55.883 335.719 M117.533 336.085 C 118.066 336.290,119.117 338.121,119.444 339.414 C 119.930 341.333,119.933 352.006,119.449 353.899 C 118.263 358.537,113.902 358.649,112.716 354.073 C 111.978 351.227,111.846 342.592,112.495 339.666 C 113.214 336.424,115.038 335.128,117.533 336.085 M134.932 336.150 C 136.483 336.989,137.090 339.996,137.076 346.766 C 137.058 355.358,136.191 357.602,132.990 357.337 C 130.206 357.106,129.510 354.939,129.504 346.487 C 129.499 339.403,129.683 338.283,131.129 336.565 C 131.754 335.822,133.895 335.589,134.932 336.150 M152.179 336.242 C 153.834 337.327,154.690 342.125,154.404 348.720 C 154.122 355.244,153.164 357.376,150.516 357.376 C 147.628 357.376,146.687 354.675,146.687 346.394 C 146.687 340.142,147.022 338.161,148.330 336.670 C 149.134 335.755,151.101 335.536,152.179 336.242 M56.627 382.884 C 52.672 383.594,50.651 386.383,51.936 389.356 C 52.645 390.996,54.036 391.528,58.607 391.906 C 63.076 392.275,63.844 392.552,63.844 393.792 C 63.844 396.072,58.197 396.605,54.427 394.681 C 52.396 393.645,52.464 393.638,51.642 394.991 C 50.849 396.296,50.829 396.246,52.552 397.278 C 55.546 399.072,61.766 399.294,64.638 397.709 C 66.743 396.547,67.580 393.655,66.451 391.442 C 65.618 389.807,64.202 389.280,59.672 388.917 C 55.089 388.550,54.601 388.391,54.755 387.315 C 54.997 385.618,62.483 385.424,63.856 387.079 C 64.212 387.507,64.447 387.399,65.379 386.377 C 66.612 385.025,66.597 384.975,64.671 384.019 C 62.530 382.957,58.998 382.458,56.627 382.884 M100.233 382.901 C 91.854 384.855,91.532 396.216,99.791 398.505 C 105.858 400.186,111.308 396.440,111.308 390.588 L 111.308 389.949 106.189 389.949 L 101.070 389.949 101.070 391.438 L 101.070 392.927 104.328 392.927 C 108.041 392.927,108.004 392.904,106.602 394.307 C 103.160 397.749,96.747 395.455,96.797 390.800 C 96.847 386.160,103.267 384.029,106.847 387.464 C 107.868 388.444,107.836 388.442,109.141 387.582 C 110.320 386.806,110.408 386.513,109.713 385.687 C 107.778 383.387,103.516 382.135,100.233 382.901 M131.059 382.984 C 122.789 385.208,122.507 396.250,130.662 398.499 C 135.146 399.736,139.802 397.949,141.493 394.341 C 144.525 387.876,138.252 381.049,131.059 382.984 M73.287 383.938 C 73.043 384.429,72.233 386.003,71.488 387.436 C 70.743 388.869,70.031 390.251,69.906 390.507 C 69.590 391.156,69.030 392.251,67.526 395.161 C 65.598 398.892,65.584 398.511,67.650 398.511 L 69.399 398.511 69.609 397.873 C 69.725 397.522,70.149 396.726,70.550 396.105 L 71.281 394.974 75.186 394.974 L 79.092 394.974 79.983 396.696 L 80.875 398.418 82.503 398.472 C 84.544 398.539,84.572 398.855,82.127 394.139 C 81.756 393.424,80.357 390.660,79.017 387.997 L 76.583 383.155 75.157 383.101 L 73.730 383.047 73.287 383.938 M84.877 390.786 L 84.877 398.511 86.273 398.511 L 87.669 398.511 87.669 390.786 L 87.669 383.062 86.273 383.062 L 84.877 383.062 84.877 390.786 M112.238 390.812 L 112.238 398.563 118.662 398.472 C 122.196 398.423,125.118 398.348,125.157 398.307 C 125.196 398.266,125.257 397.645,125.294 396.929 L 125.361 395.626 120.289 395.576 L 115.216 395.527 115.216 389.294 L 115.216 383.062 113.727 383.062 L 112.238 383.062 112.238 390.812 M143.136 390.775 L 143.136 398.511 148.953 398.504 C 156.941 398.495,157.785 398.301,158.827 396.242 C 159.692 394.532,159.175 391.083,157.987 390.639 C 157.807 390.572,157.825 390.487,158.058 390.296 C 159.783 388.882,159.003 384.993,156.724 383.649 L 155.886 383.155 149.511 383.097 L 143.136 383.040 143.136 390.775 M164.687 386.552 C 163.711 388.471,162.789 390.293,162.639 390.600 C 161.979 391.943,161.157 393.554,160.007 395.758 C 158.467 398.708,158.437 398.511,160.433 398.511 L 162.095 398.511 162.542 397.533 C 162.789 396.995,163.214 396.200,163.489 395.765 L 163.988 394.974 167.987 394.974 C 170.420 394.974,171.987 395.044,171.987 395.153 C 171.987 395.252,172.379 396.047,172.858 396.921 L 173.729 398.511 175.386 398.511 C 176.298 398.511,177.016 398.446,176.982 398.368 C 176.947 398.289,175.214 394.813,173.129 390.643 L 169.339 383.062 167.900 383.062 L 166.462 383.062 164.687 386.552 M177.721 390.647 C 177.683 394.819,177.680 398.295,177.715 398.371 C 177.750 398.448,180.664 398.511,184.190 398.511 L 190.600 398.511 190.600 397.022 L 190.600 395.533 185.575 395.533 L 180.549 395.533 180.549 389.297 L 180.549 383.062 179.169 383.062 L 177.790 383.062 177.721 390.647 M135.991 386.244 C 138.658 387.289,140.000 390.484,138.782 392.888 C 136.255 397.875,127.781 396.398,127.810 390.976 C 127.831 387.034,131.941 384.656,135.991 386.244 M155.523 386.683 C 156.021 387.182,156.072 387.448,155.801 388.160 C 155.446 389.095,154.879 389.204,150.405 389.204 L 146.301 389.204 146.301 387.715 L 146.301 386.226 150.683 386.226 L 155.066 386.226 155.523 386.683 M169.122 389.597 C 170.517 392.116,170.583 391.996,167.811 391.996 L 165.496 391.996 166.058 390.740 C 166.884 388.894,167.972 387.116,168.052 387.480 C 168.089 387.648,168.570 388.600,169.122 389.597 M76.265 389.359 C 76.801 390.451,77.292 391.491,77.355 391.671 C 77.462 391.970,77.279 391.996,75.125 391.996 C 73.834 391.996,72.778 391.963,72.778 391.922 C 72.778 391.725,75.083 387.345,75.180 387.358 C 75.241 387.366,75.729 388.267,76.265 389.359 M154.793 392.369 C 156.193 392.369,156.881 394.040,155.872 394.988 C 155.395 395.437,155.366 395.440,150.846 395.496 L 146.301 395.551 146.301 393.964 L 146.301 392.376 149.977 392.324 C 151.999 392.295,153.764 392.293,153.901 392.320 C 154.037 392.347,154.439 392.369,154.793 392.369 M22.949 409.755 C 20.922 410.492,19.925 413.228,19.919 418.067 C 19.912 424.278,21.349 426.803,24.893 426.803 C 27.973 426.803,29.601 425.080,29.904 421.498 L 30.022 420.102 29.004 420.102 L 27.986 420.102 27.785 421.399 C 27.078 425.967,23.378 426.146,22.427 421.658 C 21.869 419.026,22.136 414.658,22.969 412.775 C 24.103 410.210,27.723 411.358,27.732 414.286 L 27.734 414.891 28.852 414.891 L 29.971 414.891 29.856 413.820 C 29.479 410.322,26.389 408.503,22.949 409.755 M111.919 409.755 C 109.327 410.698,108.582 416.126,110.842 417.607 C 111.381 417.960,114.751 419.434,115.403 419.601 C 116.686 419.931,117.224 422.290,116.342 423.717 C 114.867 426.105,111.308 424.778,111.308 421.841 L 111.308 421.033 110.259 421.033 L 109.211 421.033 109.300 422.423 C 109.492 425.403,110.779 426.671,113.716 426.773 C 118.157 426.927,120.624 422.439,118.100 418.798 C 117.580 418.048,117.416 417.947,115.496 417.208 C 113.593 416.476,112.091 415.684,111.890 415.307 C 111.183 413.987,111.621 412.097,112.743 411.629 C 114.736 410.796,116.333 411.781,116.333 413.842 C 116.333 414.312,116.375 414.332,117.357 414.332 L 118.381 414.332 118.381 413.511 C 118.381 410.376,115.236 408.548,111.919 409.755 M141.967 410.470 C 141.714 410.905,141.278 411.722,140.998 412.285 C 140.717 412.848,140.383 413.434,140.254 413.588 C 140.126 413.741,139.580 414.705,139.041 415.728 C 138.503 416.752,137.960 417.715,137.834 417.869 C 137.164 418.687,136.436 420.532,136.436 421.411 L 136.436 422.336 139.321 422.336 L 142.206 422.336 142.206 424.383 L 142.206 426.431 143.322 426.431 L 144.439 426.431 144.439 424.383 L 144.439 422.336 145.184 422.336 L 145.928 422.336 145.928 421.405 L 145.928 420.475 145.184 420.475 L 144.439 420.475 144.439 415.077 L 144.439 409.679 143.433 409.679 C 142.446 409.679,142.419 409.694,141.967 410.470 M152.758 410.563 C 152.522 411.049,152.113 411.785,151.850 412.199 C 151.587 412.612,151.101 413.491,150.770 414.153 C 150.438 414.815,150.063 415.482,149.934 415.635 C 149.806 415.789,149.302 416.668,148.814 417.590 C 148.326 418.511,147.771 419.487,147.579 419.759 C 147.340 420.099,147.231 420.578,147.231 421.294 L 147.231 422.336 150.116 422.336 L 153.001 422.336 153.001 424.383 L 153.001 426.431 154.025 426.431 L 155.049 426.431 155.049 424.383 L 155.049 422.336 155.793 422.336 L 156.538 422.336 156.538 421.405 L 156.538 420.475 155.793 420.475 L 155.049 420.475 155.049 415.077 L 155.049 409.679 154.119 409.679 C 153.193 409.679,153.186 409.684,152.758 410.563 M161.609 409.845 C 159.360 410.238,158.402 412.745,158.402 418.241 C 158.402 424.662,159.542 426.803,162.961 426.803 C 166.436 426.803,167.716 423.999,167.466 416.938 C 167.260 411.094,165.646 409.141,161.609 409.845 M173.518 410.506 C 173.179 411.772,171.983 412.657,170.609 412.657 C 169.940 412.657,169.940 412.657,169.940 413.495 L 169.940 414.332 171.615 414.332 L 173.290 414.332 173.290 420.382 L 173.290 426.431 174.407 426.431 L 175.523 426.431 175.523 418.055 L 175.523 409.679 174.631 409.679 L 173.739 409.679 173.518 410.506 M66.263 418.140 L 66.263 426.431 67.313 426.431 L 68.362 426.431 68.226 419.684 C 68.151 415.973,68.134 412.980,68.188 413.033 C 68.347 413.188,69.614 416.254,69.614 416.484 C 69.614 416.598,70.033 417.666,70.544 418.856 C 71.056 420.046,71.474 421.086,71.473 421.166 C 71.472 421.247,71.949 422.464,72.533 423.872 L 73.595 426.431 74.862 426.431 L 76.128 426.431 76.128 418.148 L 76.128 409.865 75.078 409.865 L 74.028 409.865 74.151 416.426 C 74.273 422.969,74.273 422.985,73.923 422.150 C 73.013 419.975,71.938 417.273,71.478 416.007 C 71.200 415.240,70.779 414.193,70.543 413.681 C 70.308 413.169,69.897 412.122,69.630 411.354 L 69.146 409.958 67.705 409.904 L 66.263 409.849 66.263 418.140 M100.140 418.148 L 100.140 426.431 101.256 426.431 L 102.373 426.431 102.373 422.615 L 102.373 418.799 104.979 418.799 L 107.585 418.799 107.585 417.776 L 107.585 416.752 104.979 416.752 L 102.373 416.752 102.373 414.239 L 102.373 411.726 105.258 411.726 L 108.143 411.726 108.143 410.796 L 108.143 409.865 104.141 409.865 L 100.140 409.865 100.140 418.148 M121.173 418.148 L 121.173 426.431 122.289 426.431 L 123.406 426.431 123.429 419.591 C 123.444 414.873,123.504 413.010,123.623 413.588 C 123.717 414.048,124.203 416.059,124.702 418.055 C 125.200 420.051,125.745 422.313,125.912 423.081 C 126.079 423.848,126.343 424.916,126.499 425.454 L 126.783 426.431 127.856 426.431 L 128.929 426.431 129.260 424.895 C 129.441 424.051,129.961 422.002,130.415 420.343 C 130.869 418.684,131.316 416.883,131.408 416.341 C 131.500 415.799,131.784 414.686,132.039 413.867 L 132.502 412.378 132.514 419.404 L 132.527 426.431 133.550 426.431 L 134.574 426.431 134.574 418.148 L 134.574 409.865 132.921 409.865 L 131.267 409.865 130.491 412.658 C 130.064 414.195,129.638 415.891,129.545 416.428 C 128.925 419.994,127.515 423.753,127.504 421.871 C 127.503 421.666,127.091 419.907,126.589 417.962 C 126.087 416.017,125.443 413.399,125.157 412.145 L 124.638 409.865 122.905 409.865 L 121.173 409.865 121.173 418.148 M179.991 410.882 L 179.991 411.904 183.539 411.955 L 187.087 412.006 186.331 413.062 C 185.915 413.642,185.575 414.172,185.575 414.239 C 185.575 414.306,185.239 414.925,184.830 415.615 C 183.504 417.846,181.680 423.633,181.670 425.640 L 181.666 426.431 182.783 426.431 C 183.833 426.431,183.899 426.405,183.899 425.990 C 183.899 422.693,186.269 415.889,188.511 412.748 C 189.205 411.777,189.301 411.525,189.256 410.796 L 189.204 409.958 184.597 409.908 L 179.991 409.859 179.991 410.882 M50.256 412.182 L 50.256 413.753 49.372 413.810 L 48.488 413.867 48.431 414.751 L 48.374 415.635 49.312 415.635 L 50.250 415.635 50.300 420.780 L 50.349 425.926 50.874 426.318 C 51.294 426.632,51.667 426.710,52.736 426.710 L 54.072 426.710 54.128 425.826 L 54.185 424.942 53.511 424.942 C 52.073 424.942,52.117 425.097,52.117 420.096 L 52.117 415.635 53.151 415.635 L 54.185 415.635 54.128 414.751 L 54.072 413.867 53.094 413.811 L 52.117 413.754 52.117 412.182 L 52.117 410.610 51.187 410.610 L 50.256 410.610 50.256 412.182 M164.491 412.657 C 165.895 415.496,165.422 423.886,163.809 424.749 C 162.747 425.318,161.233 424.316,160.923 422.840 C 160.404 420.371,160.503 414.518,161.088 413.118 C 161.828 411.347,163.716 411.091,164.491 412.657 M153.090 418.567 L 152.966 420.475 151.122 420.475 C 150.108 420.475,149.279 420.427,149.279 420.368 C 149.279 420.310,149.483 419.912,149.733 419.484 C 150.379 418.379,151.786 415.754,152.493 414.332 L 153.094 413.122 153.154 414.891 C 153.187 415.863,153.158 417.517,153.090 418.567 M142.309 420.236 C 142.221 420.466,138.483 420.611,138.483 420.384 C 138.483 420.334,138.808 419.685,139.204 418.942 C 139.601 418.198,140.323 416.836,140.809 415.914 C 142.405 412.887,142.291 412.832,142.350 416.653 C 142.378 418.492,142.359 420.104,142.309 420.236 M34.522 413.774 C 31.088 414.844,31.065 425.310,34.493 426.605 C 37.067 427.577,39.466 425.978,39.768 423.089 L 39.886 421.964 38.835 421.964 L 37.785 421.964 37.782 422.662 C 37.766 426.342,34.443 425.626,34.126 421.874 L 34.008 420.475 36.944 420.475 L 39.880 420.475 39.797 418.455 C 39.639 414.620,37.603 412.813,34.522 413.774 M81.186 413.772 C 77.509 414.642,77.296 425.017,80.925 426.533 C 83.198 427.483,85.979 426.315,86.759 424.082 C 87.222 422.757,87.108 417.039,86.598 415.999 C 85.594 413.950,83.710 413.175,81.186 413.772 M41.880 420.102 L 41.880 426.431 42.904 426.431 L 43.927 426.431 43.928 422.383 C 43.930 416.822,44.323 415.734,46.330 415.730 L 47.277 415.728 47.277 414.751 L 47.278 413.774 46.152 413.774 C 45.088 413.774,44.989 413.813,44.384 414.472 L 43.743 415.170 43.742 414.472 L 43.741 413.774 42.811 413.774 L 41.880 413.774 41.880 420.102 M37.366 416.380 C 37.597 416.833,37.785 417.520,37.785 417.908 L 37.785 418.613 35.898 418.613 L 34.012 418.613 34.124 417.795 C 34.468 415.282,36.382 414.447,37.366 416.380 M84.173 416.011 C 86.097 418.388,85.007 425.132,82.699 425.127 C 80.855 425.123,79.791 420.199,80.925 416.915 C 81.446 415.409,83.273 414.900,84.173 416.011 M55.654 425.128 L 55.654 426.431 56.771 426.431 L 57.887 426.431 57.887 425.128 L 57.887 423.825 56.771 423.825 L 55.654 423.825 55.654 425.128 M89.530 425.128 L 89.530 426.431 90.740 426.431 L 91.950 426.431 91.950 425.128 L 91.950 423.825 90.740 423.825 L 89.530 423.825 89.530 425.128 " stroke="none" fill="#343434" fill-rule="evenodd"></path><path id="path2" d="M130.200 20.116 C 100.921 20.181,64.130 20.246,48.441 20.261 L 19.916 20.289 19.916 147.045 L 19.916 273.802 86.831 273.802 C 137.796 273.802,153.746 273.750,153.746 273.584 C 153.746 273.351,149.744 269.367,145.832 265.705 C 144.519 264.477,141.864 261.922,139.932 260.028 C 136.457 256.623,135.811 256.013,133.085 253.565 C 132.317 252.875,131.547 252.084,131.373 251.807 L 131.057 251.303 132.211 250.120 C 132.845 249.469,134.629 247.642,136.176 246.060 C 137.722 244.477,139.023 243.099,139.066 242.997 C 139.109 242.894,139.819 242.157,140.644 241.357 L 142.143 239.904 143.617 241.445 C 145.124 243.022,147.442 245.467,148.441 246.534 C 152.255 250.607,153.859 252.210,154.118 252.210 C 154.290 252.210,156.181 250.392,158.322 248.169 C 160.463 245.946,163.974 242.352,166.124 240.182 C 171.381 234.875,180.157 225.821,182.652 223.128 C 183.999 221.674,187.729 217.901,188.679 217.031 C 191.260 214.668,191.140 215.400,191.154 201.952 C 191.165 190.831,191.104 188.925,190.732 188.925 C 190.628 188.925,188.022 191.427,184.941 194.486 C 178.810 200.572,174.328 204.985,166.485 212.657 C 163.659 215.421,159.707 219.303,157.701 221.284 C 154.213 224.728,154.041 224.869,153.760 224.527 C 153.599 224.329,152.797 223.550,151.978 222.794 C 149.781 220.767,144.504 215.793,143.299 214.613 C 142.723 214.049,141.796 213.169,141.239 212.657 C 140.682 212.145,139.315 210.889,138.202 209.865 C 135.742 207.603,131.037 202.920,131.041 202.738 C 131.047 202.449,131.540 201.919,135.996 197.416 C 138.541 194.845,140.929 192.364,141.303 191.903 L 141.982 191.066 144.095 193.207 C 146.176 195.316,150.319 199.715,151.493 201.061 C 151.823 201.440,152.235 201.799,152.408 201.858 C 152.581 201.918,153.015 202.341,153.373 202.798 C 154.211 203.869,154.011 203.955,156.314 201.540 C 160.528 197.121,162.312 195.274,165.100 192.444 C 166.687 190.833,170.163 187.276,172.825 184.540 C 175.486 181.804,179.423 177.791,181.573 175.623 C 187.953 169.188,190.531 166.385,190.930 165.451 C 191.234 164.738,191.180 140.664,190.874 140.357 C 190.510 139.993,187.055 143.359,176.764 154.107 C 176.133 154.766,174.570 156.268,173.290 157.446 C 172.010 158.623,168.820 161.728,166.201 164.344 C 159.727 170.813,154.307 176.082,154.127 176.082 C 154.016 176.082,146.529 168.982,142.840 165.379 C 142.631 165.174,140.671 163.290,138.484 161.191 C 136.298 159.093,133.728 156.617,132.774 155.691 L 131.038 154.006 133.992 150.945 C 135.617 149.261,138.116 146.671,139.547 145.191 L 142.148 142.498 143.094 143.329 C 143.906 144.043,147.397 147.780,149.172 149.837 C 149.481 150.195,150.766 151.535,152.027 152.815 L 154.319 155.140 156.406 152.969 C 157.553 151.774,159.916 149.312,161.657 147.497 C 163.397 145.682,165.533 143.466,166.403 142.572 C 167.273 141.679,169.744 139.124,171.894 136.896 C 174.044 134.667,176.515 132.107,177.385 131.207 C 178.255 130.307,179.972 128.508,181.201 127.209 C 184.518 123.701,184.859 123.348,187.970 120.197 C 191.488 116.631,191.134 118.380,191.150 104.510 C 191.164 93.059,191.109 91.577,190.675 91.577 C 190.539 91.577,186.919 95.074,182.630 99.349 C 178.341 103.623,172.216 109.674,169.019 112.797 C 165.822 115.919,161.163 120.498,158.665 122.973 L 154.124 127.472 152.772 126.120 C 152.028 125.376,149.747 123.268,147.703 121.435 C 145.659 119.601,141.890 116.024,139.327 113.485 C 135.007 109.204,133.479 107.727,131.720 106.127 C 130.788 105.281,130.482 105.717,136.009 100.026 C 138.743 97.211,141.151 94.662,141.360 94.362 C 141.912 93.571,142.164 93.663,143.509 95.139 C 144.174 95.870,145.767 97.566,147.049 98.909 C 148.330 100.251,149.754 101.810,150.213 102.373 C 151.387 103.814,153.673 106.048,154.119 106.189 C 154.413 106.282,154.703 106.074,155.464 105.225 C 155.997 104.629,156.897 103.676,157.463 103.108 C 158.029 102.540,159.749 100.745,161.284 99.119 C 162.820 97.494,164.956 95.274,166.031 94.185 C 167.106 93.097,169.744 90.385,171.894 88.159 C 174.044 85.933,177.939 81.955,180.549 79.318 C 187.949 71.843,190.509 69.087,190.906 68.165 C 191.238 67.392,191.203 43.339,190.869 43.005 C 190.663 42.799,187.356 45.982,173.763 59.470 C 170.049 63.155,164.159 68.997,160.674 72.452 C 157.189 75.907,154.193 78.734,154.015 78.734 C 153.837 78.734,151.714 76.786,149.298 74.405 C 146.882 72.024,143.442 68.695,141.654 67.007 C 133.765 59.557,131.038 56.881,131.038 56.594 C 131.038 56.486,132.525 54.869,134.344 53.001 C 136.162 51.133,138.236 48.976,138.954 48.208 C 139.671 47.441,140.678 46.420,141.191 45.940 L 142.125 45.069 143.533 46.406 C 144.938 47.741,146.863 49.833,150.248 53.700 C 152.143 55.865,153.869 57.515,154.241 57.515 C 154.364 57.515,154.952 56.994,155.548 56.357 C 156.143 55.721,157.050 54.777,157.562 54.260 C 158.074 53.743,159.749 51.989,161.284 50.361 C 162.820 48.733,164.998 46.469,166.124 45.328 C 177.216 34.094,189.046 22.003,189.809 21.119 C 190.843 19.921,190.831 19.917,186.924 19.960 C 185.005 19.981,159.479 20.051,130.200 20.116 M155.235 27.629 C 155.235 28.902,154.992 29.082,153.371 29.008 L 151.885 28.941 151.885 33.456 L 151.885 37.971 150.768 37.971 L 149.651 37.971 149.651 33.530 L 149.651 29.089 148.674 28.971 C 148.136 28.907,147.424 28.853,147.092 28.852 C 146.499 28.851,146.487 28.834,146.487 28.013 L 146.487 27.175 150.861 27.175 L 155.235 27.175 155.235 27.629 M160.186 28.013 C 161.074 30.780,162.412 34.402,162.506 34.290 C 162.681 34.081,164.169 30.178,164.172 29.919 C 164.174 29.792,164.374 29.144,164.617 28.478 L 165.058 27.268 166.661 27.215 L 168.264 27.161 168.264 30.024 C 168.264 31.598,168.209 34.031,168.142 35.429 L 168.020 37.971 167.119 37.971 L 166.217 37.971 166.217 34.419 C 166.217 30.198,166.091 30.052,165.039 33.053 C 164.648 34.171,164.103 35.714,163.828 36.482 L 163.328 37.878 162.517 37.878 L 161.705 37.878 161.159 36.389 C 160.858 35.570,160.532 34.585,160.435 34.199 C 160.155 33.095,159.130 31.058,158.893 31.137 C 158.744 31.186,158.663 32.218,158.628 34.496 C 158.582 37.467,158.546 37.785,158.255 37.787 C 158.079 37.788,157.620 37.841,157.236 37.904 L 156.538 38.020 156.538 32.591 L 156.538 27.161 158.243 27.215 L 159.948 27.268 160.186 28.013 M55.840 35.458 L 55.840 37.971 49.093 37.972 C 40.228 37.974,39.642 38.077,39.649 39.635 C 39.653 40.450,39.736 40.574,40.670 41.145 L 41.415 41.601 48.627 41.657 L 55.840 41.714 55.840 44.217 L 55.840 46.719 48.289 46.719 C 39.636 46.719,39.656 46.716,39.649 48.174 C 39.640 50.228,40.084 50.339,48.627 50.406 L 55.840 50.462 55.840 52.965 L 55.840 55.468 45.789 55.468 L 35.738 55.468 35.738 53.048 L 35.738 50.628 36.947 50.628 C 38.326 50.628,38.411 50.523,37.521 49.918 C 34.843 48.094,34.706 44.165,37.263 42.531 C 38.335 41.846,38.352 41.703,37.422 41.126 C 35.780 40.107,34.908 37.208,35.718 35.458 C 36.810 33.101,37.442 32.968,47.604 32.956 L 55.840 32.946 55.840 35.458 M46.347 62.713 L 46.347 67.353 47.417 67.489 C 50.891 67.929,52.960 66.707,52.325 64.588 C 52.041 63.638,51.538 63.316,50.103 63.166 L 48.953 63.046 48.953 60.629 L 48.953 58.212 50.396 58.298 C 54.203 58.527,56.092 60.886,56.102 65.426 C 56.115 71.497,53.851 72.954,44.765 72.724 C 38.904 72.576,37.437 71.996,36.169 69.326 C 34.622 66.069,35.039 61.879,37.104 59.924 C 38.719 58.396,39.302 58.264,45.184 58.105 L 46.347 58.074 46.347 62.713 M40.446 63.128 C 38.424 63.582,38.010 66.401,39.880 66.981 C 40.879 67.291,42.024 67.419,42.620 67.288 L 43.183 67.164 43.183 65.156 L 43.183 63.148 42.485 63.032 C 41.644 62.893,41.453 62.902,40.446 63.128 M39.646 75.663 L 39.646 77.059 44.812 77.055 C 51.596 77.049,52.117 76.908,52.117 75.084 L 52.117 74.267 53.882 74.267 L 55.647 74.267 55.790 74.779 C 56.219 76.313,55.957 79.347,55.308 80.369 C 54.115 82.248,53.120 82.457,45.382 82.457 L 39.646 82.457 39.646 83.574 L 39.646 84.691 37.692 84.691 L 35.738 84.691 35.738 83.574 L 35.738 82.457 32.946 82.457 L 30.154 82.457 30.154 79.758 L 30.154 77.059 32.946 77.059 L 35.738 77.059 35.738 75.663 L 35.738 74.267 37.692 74.267 L 39.646 74.267 39.646 75.663 M52.990 85.775 C 57.376 88.028,57.321 96.375,52.906 98.628 C 52.513 98.828,51.630 99.043,50.944 99.105 L 49.698 99.218 49.698 96.794 L 49.698 94.369 50.159 94.369 C 52.512 94.369,53.653 91.034,51.617 90.107 C 50.279 89.497,49.337 90.047,48.460 91.950 C 45.782 97.762,42.964 99.889,39.416 98.776 C 33.473 96.911,34.055 85.854,40.117 85.468 L 41.322 85.392 41.322 87.627 C 41.322 90.014,41.292 90.087,40.329 90.089 C 38.841 90.092,38.035 92.411,39.120 93.566 C 40.391 94.919,41.742 93.973,43.465 90.521 C 44.713 88.020,45.988 86.300,46.994 85.759 C 48.195 85.114,51.721 85.123,52.990 85.775 M40.856 100.622 C 42.085 100.883,44.933 101.511,47.185 102.018 C 49.437 102.526,51.432 102.939,51.618 102.936 C 52.108 102.930,55.415 103.783,57.804 104.532 C 61.540 105.703,62.816 107.625,62.434 111.504 L 62.306 112.797 60.376 112.797 L 58.446 112.797 58.446 111.907 C 58.446 111.076,58.120 110.309,57.619 109.961 C 57.180 109.656,55.855 109.892,47.929 111.689 C 45.677 112.200,43.498 112.663,43.086 112.718 C 42.674 112.773,40.853 113.177,39.038 113.616 L 35.738 114.415 35.738 111.764 C 35.738 108.681,35.522 108.956,38.146 108.696 C 40.017 108.510,48.563 107.106,48.709 106.961 C 48.864 106.805,38.052 104.979,36.975 104.979 C 35.716 104.979,35.738 105.029,35.738 102.100 L 35.738 99.446 37.180 99.797 C 37.973 99.990,39.628 100.362,40.856 100.622 M50.827 115.517 C 54.830 116.705,56.239 118.844,56.147 123.592 C 56.047 128.722,53.904 130.939,48.813 131.182 L 46.906 131.273 46.906 128.575 L 46.906 125.877 48.333 125.748 C 51.265 125.482,52.480 124.065,51.463 122.097 C 50.179 119.615,47.113 120.690,44.544 124.523 C 42.544 127.506,42.198 127.948,41.019 129.025 C 39.275 130.619,36.129 131.287,33.690 130.581 C 32.453 130.223,32.146 130.140,31.983 130.121 C 31.047 130.014,29.185 127.402,28.760 125.599 C 27.470 120.131,30.224 115.791,35.198 115.450 L 36.668 115.349 36.668 118.075 L 36.668 120.800 35.784 120.804 C 33.075 120.817,31.683 123.497,33.684 124.849 C 35.153 125.842,38.716 124.221,38.716 122.559 C 38.716 122.428,38.785 122.293,38.870 122.258 C 39.045 122.188,40.576 119.910,40.579 119.717 C 40.580 119.647,40.997 119.103,41.507 118.508 C 42.017 117.913,42.497 117.314,42.576 117.179 C 43.435 115.686,48.178 114.730,50.827 115.517 M55.840 145.928 L 55.840 148.348 54.723 148.348 C 53.363 148.348,53.300 148.577,54.429 149.408 C 57.015 151.309,56.721 155.933,53.931 157.241 C 52.417 157.950,51.114 158.101,46.533 158.095 C 42.397 158.090,41.387 158.003,38.408 157.393 C 35.669 156.832,34.421 153.155,36.111 150.624 C 36.521 150.010,37.024 149.464,37.228 149.411 C 38.549 149.065,37.319 148.906,33.318 148.906 L 29.037 148.906 29.037 146.208 L 29.037 143.509 42.438 143.509 L 55.840 143.509 55.840 145.928 M41.678 148.894 C 39.074 149.403,39.190 152.120,41.834 152.571 C 43.775 152.903,50.096 152.745,50.907 152.345 C 52.279 151.669,52.472 150.202,51.287 149.469 C 50.242 148.824,43.961 148.447,41.678 148.894 M267.255 159.935 C 267.018 160.268,266.447 160.965,265.986 161.484 C 265.524 162.004,264.938 162.674,264.682 162.973 C 263.183 164.731,259.699 168.795,259.425 169.107 C 259.247 169.309,258.619 170.031,258.029 170.713 C 256.983 171.921,256.476 172.514,254.421 174.935 C 253.450 176.080,251.601 178.211,250.925 178.967 C 249.992 180.009,246.080 184.574,245.535 185.256 C 245.190 185.687,244.562 186.423,244.139 186.891 C 243.279 187.841,242.001 189.335,241.442 190.042 C 241.240 190.298,241.039 190.465,240.997 190.414 C 240.954 190.363,240.376 189.609,239.711 188.739 C 239.047 187.869,238.090 186.631,237.586 185.988 C 237.081 185.345,236.352 184.385,235.966 183.855 C 235.579 183.326,235.197 182.846,235.116 182.791 C 234.972 182.691,232.680 179.725,231.328 177.888 C 230.950 177.375,230.565 176.905,230.472 176.844 C 230.379 176.783,230.102 176.430,229.856 176.060 C 229.348 175.294,228.291 173.930,226.856 172.189 L 225.872 170.995 225.824 177.559 L 225.775 184.122 226.412 184.988 C 226.762 185.464,227.266 186.057,227.531 186.305 C 227.796 186.553,228.015 186.846,228.018 186.957 C 228.021 187.067,228.274 187.450,228.581 187.808 C 229.171 188.496,230.096 189.678,232.080 192.275 C 232.745 193.146,233.441 194.007,233.629 194.191 C 233.816 194.374,233.969 194.591,233.969 194.673 C 233.969 194.756,234.388 195.302,234.900 195.887 C 235.412 196.472,235.831 197.017,235.831 197.099 C 235.831 197.180,236.052 197.486,236.322 197.777 C 236.593 198.069,237.033 198.606,237.300 198.969 C 240.705 203.609,241.074 203.934,241.688 202.832 C 242.399 201.558,244.274 198.512,244.693 197.952 C 244.923 197.644,245.191 197.183,245.289 196.928 C 245.386 196.672,245.894 195.841,246.418 195.081 C 246.942 194.320,247.371 193.632,247.371 193.551 C 247.371 193.470,247.769 192.783,248.255 192.024 C 249.702 189.765,251.091 187.533,251.428 186.922 C 251.801 186.248,253.754 183.016,254.435 181.945 C 254.696 181.536,255.011 181.033,255.136 180.828 C 255.260 180.624,255.637 180.011,255.973 179.466 C 256.309 178.922,256.794 178.125,257.050 177.696 C 257.613 176.752,258.305 175.627,259.632 173.498 C 260.182 172.616,260.810 171.597,261.028 171.233 C 261.838 169.882,263.621 166.992,264.868 165.007 C 265.576 163.881,266.309 162.666,266.496 162.308 C 266.683 161.950,267.106 161.242,267.434 160.736 C 268.313 159.381,268.154 158.670,267.255 159.935 M46.347 165.178 L 46.347 169.724 47.578 169.856 C 51.092 170.232,52.963 169.090,52.325 166.961 C 52.040 166.008,51.479 165.650,50.076 165.522 L 48.953 165.421 48.953 163.000 L 48.953 160.580 50.082 160.698 C 54.423 161.152,56.101 163.181,56.109 167.985 C 56.116 172.286,54.413 174.537,50.860 174.922 C 47.566 175.279,40.243 175.039,39.066 174.535 C 35.063 172.819,33.846 166.174,36.885 162.619 C 38.236 161.038,39.498 160.662,43.509 160.645 L 46.347 160.633 46.347 165.178 M40.446 165.501 C 38.425 165.955,38.009 168.778,39.880 169.352 C 42.701 170.217,43.183 169.950,43.183 167.524 L 43.183 165.521 42.485 165.406 C 41.644 165.267,41.453 165.276,40.446 165.501 M33.318 180.549 L 33.318 183.155 31.084 183.155 L 28.851 183.155 28.851 180.549 L 28.851 177.943 31.084 177.943 L 33.318 177.943 33.318 180.549 M55.840 180.549 L 55.840 183.155 45.789 183.155 L 35.738 183.155 35.738 180.549 L 35.738 177.943 45.789 177.943 L 55.840 177.943 55.840 180.549 M32.946 186.129 C 32.946 187.258,33.386 187.637,34.752 187.684 L 35.644 187.715 35.700 186.459 L 35.755 185.202 37.794 185.202 L 39.832 185.202 39.832 186.412 L 39.832 187.622 47.836 187.622 L 55.840 187.622 55.840 190.321 L 55.840 193.020 47.836 193.020 L 39.832 193.020 39.832 194.230 L 39.832 195.440 37.785 195.440 L 35.738 195.440 35.738 194.230 L 35.738 193.020 34.388 193.015 C 30.511 193.001,29.040 191.403,29.038 187.203 L 29.037 185.202 30.991 185.202 L 32.946 185.202 32.946 186.129 M33.318 199.814 L 33.318 202.513 31.084 202.513 L 28.851 202.513 28.851 199.814 L 28.851 197.115 31.084 197.115 L 33.318 197.115 33.318 199.814 M55.840 199.814 L 55.840 202.513 45.789 202.513 L 35.738 202.513 35.738 199.814 L 35.738 197.115 45.789 197.115 L 55.840 197.115 55.840 199.814 M39.646 205.863 L 39.646 207.166 44.998 207.165 C 51.779 207.164,52.117 207.070,52.117 205.203 L 52.117 204.560 53.891 204.560 C 56.032 204.560,55.933 204.424,55.933 207.367 C 55.933 212.088,54.995 212.564,45.687 212.564 L 39.646 212.564 39.646 213.681 L 39.646 214.798 37.692 214.798 L 35.738 214.798 35.738 213.681 L 35.738 212.564 32.946 212.564 L 30.154 212.564 30.154 209.865 L 30.154 207.166 32.946 207.166 L 35.738 207.166 35.738 205.863 L 35.738 204.560 37.692 204.560 L 39.646 204.560 39.646 205.863 M225.531 205.987 C 225.463 206.056,225.407 207.438,225.407 209.058 L 225.407 212.006 241.787 212.006 L 258.167 212.006 258.167 208.934 L 258.167 205.863 241.911 205.863 C 232.970 205.863,225.600 205.919,225.531 205.987 M41.288 217.273 C 41.242 219.966,41.587 220.086,49.558 220.162 L 55.840 220.222 55.840 222.815 L 55.840 225.407 45.789 225.407 L 35.738 225.407 35.738 223.081 L 35.738 220.754 37.134 220.754 C 38.783 220.754,38.928 220.522,37.779 219.726 C 36.858 219.087,35.843 217.732,35.587 216.799 L 35.395 216.101 38.352 216.101 L 41.308 216.101 41.288 217.273 M46.390 232.806 L 46.440 237.413 48.581 237.399 C 51.952 237.379,52.879 236.675,52.293 234.583 C 52.013 233.583,51.379 233.225,49.890 233.225 L 48.953 233.225 48.953 230.699 L 48.953 228.172 50.023 228.298 C 54.395 228.810,56.127 230.875,56.109 235.551 C 56.093 239.910,54.605 241.952,50.976 242.599 C 48.854 242.978,41.382 242.878,39.930 242.451 C 36.586 241.469,34.725 238.094,35.306 234.066 C 35.934 229.707,38.024 228.248,43.691 228.215 L 46.341 228.199 46.390 232.806 M39.874 233.327 C 39.084 233.659,38.716 234.284,38.716 235.293 C 38.716 236.744,39.691 237.320,42.149 237.320 L 43.183 237.320 43.183 235.207 L 43.183 233.094 41.805 233.094 C 41.047 233.094,40.178 233.199,39.874 233.327 M187.615 240.437 C 183.028 244.848,162.425 265.426,162.597 265.426 C 162.682 265.426,162.477 265.629,162.139 265.878 C 161.802 266.127,160.670 267.195,159.625 268.252 C 158.580 269.308,156.944 270.896,155.990 271.780 C 154.980 272.716,154.310 273.474,154.384 273.594 C 154.477 273.745,159.547 273.802,172.742 273.802 L 190.973 273.802 190.973 255.747 C 190.973 240.718,190.930 237.692,190.721 237.692 C 190.583 237.692,189.185 238.927,187.615 240.437 M38.157 248.383 L 38.157 251.257 37.273 251.371 C 36.787 251.434,36.081 251.529,35.706 251.583 C 33.474 251.900,32.274 254.413,33.682 255.821 C 35.367 257.506,50.124 257.391,51.242 255.684 C 52.786 253.328,50.988 251.481,47.138 251.470 L 45.603 251.466 45.603 248.460 L 45.603 245.454 47.697 245.563 C 53.780 245.881,56.100 248.252,56.112 254.165 C 56.123 259.226,54.446 261.631,50.256 262.562 C 47.877 263.090,37.220 263.083,34.621 262.551 C 30.606 261.730,28.478 258.857,28.478 254.258 C 28.478 248.831,31.679 245.689,37.366 245.531 L 38.157 245.510 38.157 248.383 M30.290 378.511 C 28.367 378.987,27.754 379.245,26.477 380.119 C 25.475 380.805,25.480 381.014,26.498 381.014 C 28.992 381.014,29.137 381.284,26.754 381.490 C 24.787 381.661,24.329 381.758,24.095 382.053 C 21.289 385.596,21.279 385.561,25.081 385.845 C 26.796 385.973,28.220 386.097,28.246 386.121 C 28.298 386.169,23.502 386.587,22.156 386.651 L 21.324 386.691 21.000 388.087 C 20.449 390.460,20.202 390.238,23.685 390.494 C 26.726 390.718,28.319 391.024,26.617 391.057 C 26.156 391.066,24.691 391.196,23.360 391.347 C 22.029 391.497,20.877 391.621,20.800 391.622 C 20.551 391.625,21.024 395.112,21.281 395.167 C 21.349 395.182,27.484 395.713,27.920 395.741 C 28.615 395.787,24.286 396.237,22.941 396.259 C 21.409 396.283,21.411 396.299,23.299 399.125 L 23.983 400.149 25.812 400.273 C 27.775 400.407,28.579 400.589,27.641 400.688 C 24.671 401.003,24.742 401.291,28.199 402.959 C 31.516 404.559,37.085 404.394,39.885 402.614 C 40.375 402.302,40.857 402.047,40.955 402.047 C 42.174 402.047,46.347 396.178,46.347 394.463 C 46.347 393.466,45.837 393.841,43.276 396.717 C 41.519 398.690,38.863 401.325,38.250 401.702 C 36.753 402.624,34.062 401.243,34.062 399.552 L 34.062 398.801 34.714 399.471 C 36.580 401.393,38.146 400.848,41.464 397.126 C 42.563 395.892,43.630 394.707,43.834 394.491 C 44.039 394.275,44.772 393.508,45.463 392.786 C 46.674 391.522,46.719 391.440,46.719 390.537 C 46.719 388.240,46.471 388.351,42.977 392.209 C 38.473 397.183,37.595 397.749,35.828 396.817 C 34.551 396.143,34.062 395.561,34.062 394.716 L 34.062 393.968 34.760 394.635 C 36.492 396.291,38.981 395.768,40.560 393.417 C 40.874 392.950,41.875 391.824,44.300 389.213 C 46.339 387.017,46.291 387.120,45.803 385.980 C 45.363 384.954,45.040 384.890,44.453 385.714 C 44.216 386.047,43.687 386.662,43.277 387.082 C 42.580 387.795,41.363 389.127,40.469 390.155 C 38.372 392.566,36.669 392.956,34.931 391.426 C 34.154 390.742,34.063 390.580,34.070 389.886 L 34.077 389.111 34.582 389.685 C 36.420 391.774,38.093 391.205,41.633 387.287 C 42.946 385.833,44.125 384.533,44.253 384.398 C 44.633 383.996,44.521 383.440,43.942 382.861 C 43.245 382.165,43.149 382.175,42.511 383.015 C 41.550 384.279,38.822 386.894,38.129 387.215 C 36.434 387.999,34.074 386.720,34.074 385.016 L 34.074 384.272 34.520 384.778 C 35.610 386.017,37.130 386.381,38.281 385.680 C 39.043 385.215,42.438 381.772,42.438 381.463 C 42.438 380.967,40.848 380.043,40.600 380.396 C 39.917 381.369,37.885 382.690,37.071 382.690 C 35.603 382.690,34.058 381.401,34.070 380.187 L 34.077 379.432 34.590 380.031 C 35.861 381.515,38.596 381.410,39.538 379.840 C 40.324 378.528,33.931 377.609,30.290 378.511 " stroke="none" fill="#ec3434" fill-rule="evenodd"></path><path id="path3" d="M225.593 220.652 L 225.593 225.593 226.803 225.593 L 228.013 225.593 228.013 223.954 C 228.013 222.480,228.320 221.334,228.620 221.685 C 228.823 221.922,230.060 225.017,230.060 225.288 C 230.060 225.544,230.286 225.593,231.461 225.593 L 232.862 225.593 232.600 225.081 C 232.456 224.800,232.107 223.983,231.824 223.267 C 231.542 222.550,231.035 221.411,230.697 220.735 C 230.180 219.698,230.123 219.466,230.336 219.246 C 230.829 218.737,232.480 216.216,232.480 215.974 C 232.480 215.798,232.165 215.728,231.362 215.728 L 230.245 215.728 229.137 217.439 L 228.029 219.149 227.974 217.485 L 227.920 215.821 226.757 215.766 L 225.593 215.710 225.593 220.652 M250.465 216.014 C 250.401 216.181,250.349 216.687,250.349 217.139 L 250.349 217.962 251.661 217.962 L 252.973 217.962 252.918 216.892 L 252.862 215.821 251.722 215.766 C 250.807 215.723,250.558 215.772,250.465 216.014 M270.299 216.054 C 270.208 216.233,269.778 217.510,269.344 218.893 C 268.910 220.275,268.270 222.297,267.921 223.388 C 267.572 224.478,267.287 225.421,267.287 225.482 C 267.287 225.543,267.823 225.593,268.478 225.593 L 269.670 225.593 269.893 224.663 L 270.116 223.732 271.401 223.732 C 272.526 223.732,272.685 223.775,272.685 224.076 C 272.685 225.301,273.015 225.593,274.398 225.593 C 275.489 225.593,275.685 225.547,275.594 225.310 C 275.535 225.155,275.221 224.129,274.898 223.030 C 272.499 214.879,272.888 215.728,271.552 215.728 C 270.703 215.728,270.428 215.800,270.299 216.054 M276.035 220.661 L 276.035 225.593 277.152 225.593 L 278.269 225.593 278.275 224.523 C 278.278 223.882,278.390 223.309,278.552 223.094 C 278.885 222.654,278.851 222.611,279.426 224.197 L 279.899 225.500 281.137 225.555 L 282.375 225.611 282.249 225.090 C 282.120 224.560,281.295 222.632,280.737 221.554 L 280.428 220.959 281.303 219.832 C 282.403 218.416,282.396 218.334,281.183 218.334 C 280.189 218.334,280.188 218.335,279.275 219.473 L 278.362 220.612 278.310 218.170 L 278.258 215.728 277.147 215.728 L 276.035 215.728 276.035 220.661 M297.937 215.852 C 297.869 215.921,297.813 216.552,297.813 217.255 C 297.813 218.461,297.793 218.522,297.453 218.341 C 295.135 217.100,292.980 221.230,294.325 224.333 C 294.867 225.582,296.496 226.163,297.540 225.479 C 297.822 225.294,297.999 225.258,297.999 225.386 C 297.999 225.515,298.419 225.593,299.116 225.593 L 300.233 225.593 300.233 220.661 L 300.233 215.728 299.147 215.728 C 298.550 215.728,298.005 215.784,297.937 215.852 M301.536 216.845 L 301.536 217.962 302.652 217.962 L 303.769 217.962 303.769 216.845 L 303.769 215.728 302.652 215.728 L 301.536 215.728 301.536 216.845 M322.941 216.845 L 322.941 217.962 324.151 217.962 L 325.361 217.962 325.361 216.845 L 325.361 215.728 324.151 215.728 L 322.941 215.728 322.941 216.845 M329.642 220.661 L 329.642 225.593 330.568 225.593 L 331.494 225.593 331.545 222.476 L 331.596 219.358 332.191 220.862 C 332.519 221.690,333.133 223.093,333.557 223.980 L 334.327 225.593 335.428 225.593 L 336.529 225.593 336.529 220.661 L 336.529 215.728 335.505 215.728 L 334.481 215.728 334.465 218.381 C 334.455 219.992,334.391 220.850,334.300 220.568 C 334.144 220.080,333.712 219.069,332.940 217.383 C 332.688 216.831,332.431 216.233,332.370 216.054 C 332.279 215.785,332.031 215.728,330.950 215.728 L 329.642 215.728 329.642 220.661 M351.047 216.836 L 351.047 217.962 352.266 217.962 L 353.485 217.962 353.429 216.892 L 353.374 215.821 352.210 215.766 L 351.047 215.710 351.047 216.836 M375.803 220.652 L 375.803 225.593 377.016 225.593 L 378.229 225.593 378.179 220.707 L 378.129 215.821 376.966 215.766 L 375.803 215.710 375.803 220.652 M254.382 216.225 C 254.314 216.293,254.258 216.795,254.258 217.341 C 254.258 218.210,254.211 218.334,253.886 218.334 C 253.563 218.334,253.513 218.458,253.513 219.265 C 253.513 220.071,253.563 220.195,253.886 220.195 C 254.227 220.195,254.258 220.322,254.266 221.731 C 254.284 225.088,254.761 225.833,256.837 225.741 L 258.074 225.686 258.130 224.802 C 258.184 223.971,258.160 223.918,257.727 223.918 C 256.729 223.918,256.678 223.821,256.678 221.944 L 256.678 220.195 257.329 220.195 L 257.980 220.195 257.980 219.265 L 257.980 218.334 257.329 218.334 L 256.678 218.334 256.678 217.217 L 256.678 216.101 255.592 216.101 C 254.995 216.101,254.450 216.156,254.382 216.225 M305.390 216.216 C 305.318 216.289,305.258 216.795,305.258 217.341 C 305.258 218.210,305.212 218.334,304.886 218.334 C 304.563 218.334,304.514 218.458,304.514 219.265 C 304.514 220.071,304.563 220.195,304.886 220.195 C 305.224 220.195,305.261 220.330,305.288 221.638 C 305.320 223.154,305.352 223.931,305.410 224.601 C 305.471 225.312,306.549 225.806,307.901 225.742 L 309.074 225.686 309.131 224.894 C 309.191 224.068,309.178 224.054,308.190 223.837 L 307.678 223.725 307.678 221.960 L 307.678 220.195 308.329 220.195 L 308.981 220.195 308.981 219.265 L 308.981 218.334 308.339 218.334 L 307.697 218.334 307.641 217.264 L 307.585 216.194 306.554 216.139 C 305.987 216.109,305.463 216.144,305.390 216.216 M234.428 218.454 C 232.392 219.471,232.229 224.206,234.189 225.402 C 235.770 226.365,238.281 225.593,238.825 223.977 C 240.056 220.315,237.395 216.972,234.428 218.454 M242.724 218.462 C 242.406 218.685,242.254 218.712,242.202 218.555 C 242.156 218.418,241.712 218.334,241.027 218.334 L 239.926 218.334 239.926 221.964 L 239.926 225.593 241.135 225.593 L 242.345 225.593 242.345 223.161 C 242.345 220.615,242.490 220.009,243.096 220.009 C 243.444 220.009,243.462 220.150,243.462 222.801 L 243.462 225.593 244.672 225.593 L 245.882 225.593 245.882 223.096 C 245.882 220.361,245.945 220.009,246.440 220.009 C 246.935 220.009,246.999 220.361,246.999 223.096 L 246.999 225.593 248.115 225.593 L 249.232 225.593 249.232 222.444 C 249.232 220.712,249.180 219.160,249.117 218.994 C 248.796 218.158,246.985 217.896,245.950 218.535 C 245.606 218.749,245.323 218.846,245.323 218.751 C 245.323 218.180,243.428 217.969,242.724 218.462 M260.298 218.410 C 257.977 219.421,257.682 223.925,259.842 225.374 C 261.320 226.367,263.976 225.583,264.499 224.001 C 264.766 223.190,264.814 223.237,263.564 223.083 C 262.548 222.957,262.539 222.960,262.324 223.530 C 261.928 224.580,261.102 224.349,260.882 223.127 L 260.756 222.429 262.744 222.429 L 264.733 222.429 264.629 221.418 C 264.366 218.869,262.392 217.498,260.298 218.410 M286.087 218.277 C 285.933 218.335,285.671 218.501,285.505 218.646 C 285.243 218.873,285.187 218.870,285.092 218.621 C 285.011 218.410,284.708 218.334,283.952 218.334 L 282.922 218.334 282.922 221.964 L 282.922 225.593 284.132 225.593 L 285.342 225.593 285.342 223.714 C 285.342 221.309,285.634 220.568,286.582 220.568 L 287.221 220.568 287.166 219.404 C 287.108 218.195,286.893 217.970,286.087 218.277 M288.901 218.552 C 286.780 219.601,286.670 224.375,288.741 225.432 C 290.435 226.296,292.838 225.550,293.349 224.001 C 293.619 223.183,293.651 223.213,292.359 223.061 C 291.391 222.947,291.298 222.968,291.298 223.297 C 291.298 223.776,290.947 224.104,290.434 224.104 C 289.942 224.104,289.897 224.041,289.732 223.127 L 289.606 222.429 291.595 222.429 L 293.584 222.429 293.483 221.317 C 293.249 218.745,291.114 217.456,288.901 218.552 M311.158 218.579 C 309.927 219.323,309.263 220.752,310.144 220.756 C 310.375 220.757,310.878 220.810,311.262 220.873 C 311.921 220.982,311.973 220.955,312.168 220.396 C 312.451 219.583,313.143 219.647,313.225 220.494 C 313.280 221.059,313.261 221.074,312.341 221.183 C 310.379 221.416,309.539 222.201,309.539 223.805 C 309.539 225.427,311.443 226.404,312.831 225.495 C 313.176 225.269,313.359 225.232,313.408 225.379 C 313.451 225.509,313.914 225.593,314.580 225.593 L 315.682 225.593 315.679 222.755 C 315.677 220.859,315.599 219.764,315.444 219.456 C 314.788 218.162,312.590 217.711,311.158 218.579 M318.008 218.439 C 315.851 219.554,316.336 222.047,318.893 222.986 C 319.982 223.387,320.331 223.923,319.668 224.177 C 319.238 224.342,319.226 224.337,318.688 223.770 C 317.972 223.014,316.326 223.106,316.513 223.892 C 317.236 226.942,322.876 226.141,322.300 223.069 C 322.168 222.367,321.540 221.498,321.164 221.498 C 320.514 221.498,318.818 220.570,318.880 220.248 C 318.984 219.708,319.624 219.727,320.067 220.283 C 320.535 220.871,322.010 220.660,322.010 220.005 C 322.010 218.650,319.500 217.668,318.008 218.439 M339.687 218.323 C 338.704 218.622,337.427 220.237,337.851 220.647 C 338.186 220.970,340.065 220.953,340.065 220.626 C 340.065 219.913,341.020 219.505,341.255 220.118 C 341.516 220.798,341.382 221.126,340.843 221.126 C 338.818 221.126,337.647 222.125,337.646 223.855 C 337.645 225.561,339.684 226.479,341.064 225.394 C 341.470 225.074,341.554 225.058,341.554 225.301 C 341.554 225.534,341.779 225.593,342.671 225.593 L 343.788 225.593 343.788 222.848 C 343.787 218.684,342.646 217.424,339.687 218.323 M346.115 218.441 C 343.852 219.621,344.292 222.269,346.872 222.991 C 347.826 223.258,348.222 223.746,347.780 224.112 C 347.420 224.411,346.584 224.067,346.453 223.566 C 346.377 223.277,346.227 223.237,345.494 223.314 C 343.171 223.558,344.904 225.779,347.417 225.778 C 350.533 225.777,351.474 222.365,348.644 221.333 C 347.297 220.842,346.859 220.520,347.009 220.129 C 347.190 219.659,347.860 219.757,348.103 220.289 C 348.340 220.809,348.501 220.843,349.344 220.549 C 349.968 220.332,350.038 220.130,349.749 219.370 C 349.340 218.295,347.364 217.790,346.115 218.441 M356.111 218.448 C 354.004 219.523,353.848 224.239,355.882 225.383 C 358.334 226.760,360.551 225.316,360.683 222.255 C 360.820 219.070,358.568 217.195,356.111 218.448 M364.359 218.439 C 364.001 218.626,363.781 218.659,363.739 218.531 C 363.702 218.422,363.182 218.334,362.572 218.334 L 361.470 218.334 361.470 221.964 L 361.470 225.593 362.680 225.593 L 363.890 225.593 363.890 223.116 C 363.890 220.485,364.050 219.905,364.740 220.038 C 365.074 220.102,365.104 220.308,365.152 222.850 L 365.203 225.593 366.427 225.593 L 367.651 225.593 367.574 222.569 C 367.466 218.351,366.618 217.262,364.359 218.439 M370.585 218.323 C 369.606 218.621,368.314 220.252,368.749 220.642 C 369.099 220.954,370.963 220.935,370.963 220.618 C 370.963 219.911,371.920 219.509,372.153 220.118 C 372.414 220.798,372.280 221.126,371.742 221.126 C 369.716 221.126,368.545 222.125,368.544 223.855 C 368.543 225.561,370.582 226.479,371.962 225.394 C 372.368 225.074,372.452 225.058,372.452 225.301 C 372.452 225.534,372.678 225.593,373.569 225.593 L 374.686 225.593 374.686 222.848 C 374.685 218.684,373.544 217.424,370.585 218.323 M250.535 221.955 L 250.535 225.593 251.749 225.593 L 252.963 225.593 252.912 222.010 L 252.862 218.427 251.698 218.372 L 250.535 218.316 250.535 221.955 M301.536 221.964 L 301.536 225.593 302.652 225.593 L 303.769 225.593 303.769 221.964 L 303.769 218.334 302.652 218.334 L 301.536 218.334 301.536 221.964 M322.941 221.964 L 322.941 225.593 324.151 225.593 L 325.361 225.593 325.361 221.964 L 325.361 218.334 324.151 218.334 L 322.941 218.334 322.941 221.964 M351.047 221.964 L 351.047 225.593 352.257 225.593 L 353.467 225.593 353.467 221.964 L 353.467 218.334 352.257 218.334 L 351.047 218.334 351.047 221.964 M271.645 219.944 C 271.776 220.440,271.944 221.035,272.018 221.266 C 272.143 221.657,272.098 221.685,271.331 221.685 L 270.510 221.685 270.883 220.287 C 271.304 218.709,271.316 218.703,271.645 219.944 M236.382 220.183 C 236.880 221.114,236.531 224.104,235.924 224.104 C 235.482 224.104,235.272 223.454,235.272 222.081 C 235.272 220.122,235.835 219.160,236.382 220.183 M262.255 220.183 C 262.645 220.911,262.502 221.126,261.627 221.126 C 260.766 221.126,260.748 221.092,261.062 220.056 C 261.174 219.688,262.039 219.780,262.255 220.183 M291.106 220.183 C 291.485 220.893,291.349 221.126,290.554 221.126 C 289.860 221.126,289.809 221.090,289.809 220.599 C 289.809 219.748,290.717 219.457,291.106 220.183 M297.725 220.242 C 298.187 222.084,297.477 224.777,296.778 223.836 C 296.460 223.407,296.404 220.741,296.703 220.183 C 296.969 219.685,297.594 219.721,297.725 220.242 M358.102 220.409 C 358.582 221.786,358.258 224.104,357.586 224.104 C 357.099 224.104,357.003 223.762,357.003 222.029 C 357.003 219.949,357.623 219.036,358.102 220.409 M313.262 222.967 C 313.262 223.752,312.656 224.451,312.260 224.122 C 311.852 223.784,311.881 223.251,312.331 222.801 C 312.877 222.256,313.262 222.324,313.262 222.967 M341.368 222.793 C 341.368 223.627,340.686 224.466,340.234 224.187 C 339.872 223.963,340.050 222.865,340.484 222.656 C 341.116 222.352,341.368 222.390,341.368 222.793 M372.266 222.793 C 372.266 223.627,371.584 224.466,371.133 224.187 C 370.770 223.963,370.949 222.865,371.382 222.656 C 372.014 222.352,372.266 222.390,372.266 222.793 " stroke="none" fill="#84848b" fill-rule="evenodd"></path><path id="path4" d="M274.484 94.494 C 274.416 94.562,274.360 95.316,274.360 96.169 L 274.360 97.721 306.608 97.674 L 338.855 97.627 338.912 96.423 C 338.943 95.760,338.920 95.028,338.862 94.794 L 338.755 94.369 306.682 94.369 C 289.041 94.369,274.553 94.425,274.484 94.494 M59.430 112.748 C 60.022 112.785,60.944 112.785,61.477 112.748 C 62.011 112.710,61.526 112.680,60.400 112.680 C 59.274 112.681,58.837 112.711,59.430 112.748 " stroke="none" fill="#eb4434" fill-rule="evenodd"></path></g></svg>